<svg width="154" height="45" viewBox="0 0 154 45" fill="none" xmlns="http://www.w3.org/2000/svg">
<g clip-path="url(#clip0_684_90894)">
<path d="M58.9884 19.8575C58.1729 19.8575 57.5046 19.5924 56.992 19.0593C56.4795 18.5262 56.2246 17.8836 56.2246 17.1459C56.2246 16.4082 56.4795 15.7972 56.992 15.2757C57.4847 14.7685 58.1445 14.5178 58.9884 14.5178H66.1924L65.5525 16.4082H59.2376C59.0564 16.4082 58.9006 16.4773 58.7732 16.6099C58.6514 16.7338 58.5835 16.8952 58.5778 17.0969C58.5835 17.264 58.6514 17.4167 58.7732 17.5551C58.9148 17.6876 59.0819 17.7568 59.2716 17.7568H63.9497C64.8049 17.7568 65.4873 18.0219 65.9999 18.555C66.5266 19.1054 66.7871 19.7451 66.7871 20.4799C66.7871 21.2148 66.5237 21.9064 65.9999 22.4539C65.4675 23.01 64.7879 23.2896 63.9497 23.2896H56.335L56.975 21.3906H63.8619C64.0771 21.3906 64.2583 21.3127 64.4084 21.16C64.5557 21.0073 64.6321 20.8257 64.6321 20.6183C64.6321 20.4108 64.5585 20.2292 64.4169 20.0823C64.2753 19.9295 64.1082 19.8517 63.8987 19.8517H58.9912L58.9884 19.8575Z" fill="white"/>
<path d="M67.8857 17.4398C67.8857 16.6473 68.1689 15.9673 68.7353 15.3881C69.3073 14.8117 70.0775 14.5178 71.0403 14.5178H76.2225C77.1994 14.5178 77.9668 14.8088 78.5275 15.3881C79.0939 15.9586 79.3771 16.6329 79.3771 17.4196V20.3964C79.3771 21.1543 79.0939 21.8286 78.5219 22.4135C77.9498 23.0043 77.1881 23.2953 76.2225 23.2953H71.0403C70.0889 23.2953 69.3271 23.0043 68.7409 22.4135C68.1689 21.8228 67.8857 21.1485 67.8857 20.3762V17.4427V17.4398ZM75.6306 21.3127C76.0611 21.307 76.4065 21.1802 76.6557 20.9525C76.9191 20.722 77.0522 20.4021 77.0522 19.9987V17.7597C77.0465 17.3505 76.9106 17.0306 76.6557 16.8001C76.3924 16.558 76.0554 16.4399 75.6306 16.4399H71.6407C71.2216 16.4399 70.8846 16.558 70.6241 16.8001C70.3749 17.0364 70.2389 17.3562 70.2276 17.7597V20.0189C70.2276 20.4079 70.3635 20.722 70.6241 20.9497C70.9016 21.1917 71.2386 21.3099 71.6407 21.3099H75.6306V21.3127Z" fill="white"/>
<path d="M80.6768 17.4398C80.6768 16.6473 80.9599 15.9673 81.5263 15.3881C82.0983 14.8117 82.8685 14.5178 83.8314 14.5178H89.0135C89.9904 14.5178 90.7579 14.8088 91.3185 15.3881C91.8849 15.9586 92.1681 16.6329 92.1681 17.4196V20.3964C92.1681 21.1543 91.8849 21.8286 91.3129 22.4135C90.7409 23.0043 89.9791 23.2953 89.0135 23.2953H83.8314C82.8799 23.2953 82.1181 23.0043 81.532 22.4135C80.9599 21.8228 80.6768 21.1485 80.6768 20.3762V17.4427V17.4398ZM88.4216 21.3127C88.8521 21.307 89.1975 21.1802 89.4467 20.9525C89.7101 20.722 89.8432 20.4021 89.8432 19.9987V17.7597C89.8375 17.3505 89.7016 17.0306 89.4467 16.8001C89.1834 16.558 88.8464 16.4399 88.4216 16.4399H84.4317C84.0126 16.4399 83.6756 16.558 83.4151 16.8001C83.1659 17.0364 83.03 17.3562 83.0186 17.7597V20.0189C83.0186 20.4079 83.1546 20.722 83.4151 20.9497C83.6926 21.1917 84.0296 21.3099 84.4317 21.3099H88.4216V21.3127Z" fill="white"/>
<path d="M98.7949 18.6357L104.099 23.2953H100.89L96.0595 19.0679V23.2953H93.7402V14.5207H96.0595V18.2957L100.446 14.5207H103.64L98.7949 18.6357Z" fill="white"/>
<path d="M107.828 19.8575C107.013 19.8575 106.344 19.5924 105.832 19.0593C105.319 18.5233 105.064 17.8836 105.064 17.1459C105.064 16.4082 105.319 15.7972 105.832 15.2757C106.325 14.7685 106.984 14.5178 107.828 14.5178H115.032L114.392 16.4082H108.077C107.896 16.4082 107.74 16.4773 107.613 16.6099C107.491 16.7338 107.423 16.8952 107.418 17.0969C107.423 17.264 107.491 17.4167 107.613 17.5551C107.755 17.6876 107.922 17.7568 108.111 17.7568H112.79C113.645 17.7568 114.327 18.0219 114.84 18.555C115.366 19.1054 115.63 19.7451 115.63 20.4799C115.63 21.2148 115.366 21.9064 114.84 22.4539C114.307 23.01 113.628 23.2896 112.79 23.2896H105.172L105.812 21.3906H112.699C112.914 21.3906 113.095 21.3127 113.245 21.16C113.393 21.0073 113.469 20.8257 113.469 20.6183C113.469 20.4108 113.396 20.2292 113.254 20.0823C113.112 19.9295 112.945 19.8517 112.736 19.8517H107.828V19.8575Z" fill="white"/>
<path d="M127.868 14.5178V23.2924H125.549V19.7538H119.313V23.2924H116.994V14.5178H119.313V17.8H125.549V14.5178H127.868Z" fill="white"/>
<path d="M139.872 14.5178V20.3733C139.872 21.1456 139.589 21.8199 139.017 22.4107C138.445 23.0014 137.683 23.2924 136.718 23.2924H132.728C131.776 23.2924 131.015 23.0014 130.428 22.4107C129.856 21.8199 129.573 21.1456 129.573 20.3733V14.5178H131.912V20.0189C131.912 20.4079 132.048 20.722 132.309 20.9497C132.586 21.1917 132.923 21.3099 133.325 21.3099H136.129C136.548 21.3099 136.885 21.1917 137.145 20.9497C137.409 20.7191 137.542 20.4079 137.542 20.0189V14.5178H139.867H139.872Z" fill="white"/>
<path d="M148.761 23.1599H146.759L143.834 18.1948V23.2924H141.577V14.5178H143.964L147.818 20.99L151.681 14.5178H154V23.2924H151.681V18.1948L148.761 23.1599Z" fill="white"/>
<path d="M92.6669 29.9145L92.3554 30.8539H88.2861V26.6899H89.3877V29.9145H92.6641H92.6669Z" fill="white"/>
<path d="M101.154 30.2401L101.502 30.8539H102.779L100.364 26.6899H99.1431L96.7305 30.8539H97.9764L98.3219 30.2401L98.7665 29.4736L99.7378 27.7734L100.712 29.4736L101.154 30.2401Z" fill="white"/>
<path d="M111.784 28.589C111.761 28.5976 111.736 28.6264 111.704 28.6668C111.826 28.7157 111.931 28.7878 112.024 28.8915C112.245 29.1163 112.353 29.3843 112.353 29.6926C112.353 30.001 112.245 30.2776 112.024 30.511C111.803 30.7387 111.52 30.8511 111.166 30.8539H107.193V26.6899H110.954C111.294 26.6899 111.568 26.7994 111.781 27.0185C111.996 27.2375 112.101 27.4968 112.101 27.7994C112.101 28.102 111.996 28.3671 111.784 28.5861V28.589ZM108.292 28.3757H110.541C110.659 28.3757 110.759 28.3354 110.838 28.2547C110.914 28.1711 110.954 28.076 110.954 27.9665C110.954 27.857 110.914 27.7648 110.838 27.6899C110.764 27.6063 110.668 27.5688 110.549 27.5688H108.292V28.3786V28.3757ZM108.292 29.9635H110.804C110.928 29.9606 111.03 29.9203 111.107 29.8425C111.186 29.7589 111.226 29.6638 111.226 29.5514C111.226 29.439 111.186 29.3468 111.107 29.269C111.03 29.1912 110.931 29.1509 110.812 29.1509H108.289V29.9664L108.292 29.9635Z" fill="white"/>
<path d="M118.238 29.2258C117.85 29.2258 117.536 29.099 117.292 28.8454C117.049 28.5918 116.927 28.2864 116.927 27.9377C116.927 27.589 117.049 27.298 117.292 27.0501C117.524 26.8081 117.839 26.6899 118.238 26.6899H121.656L121.353 27.5861H118.357C118.272 27.5861 118.198 27.6178 118.136 27.6812C118.079 27.7417 118.045 27.8167 118.042 27.9118C118.045 27.9896 118.076 28.0645 118.136 28.1308C118.204 28.1942 118.283 28.2259 118.374 28.2259H120.591C120.996 28.2259 121.319 28.3527 121.562 28.6062C121.812 28.8656 121.936 29.1711 121.936 29.5197C121.936 29.8684 121.812 30.1969 121.562 30.4563C121.31 30.7214 120.988 30.8511 120.591 30.8511H116.978L117.281 29.9491H120.549C120.651 29.9491 120.738 29.9116 120.806 29.8396C120.877 29.7676 120.911 29.6811 120.911 29.5831C120.911 29.4852 120.877 29.3987 120.809 29.3295C120.741 29.2575 120.662 29.22 120.563 29.22H118.235L118.238 29.2258Z" fill="white"/>
<path d="M35.1455 20.3906L36.3094 18.0075L38.1528 21.2551C38.5153 21.8949 38.5153 22.6873 38.1528 23.3242L37.9688 23.6469L35.1455 20.3906Z" fill="url(#paint0_linear_684_90894)"/>
<path d="M37.9659 23.6469L38.15 23.3242C38.5125 22.6873 38.5125 21.892 38.15 21.2551L36.3094 18.0075L35.1455 20.3906L37.9688 23.6469H37.9659Z" fill="url(#paint1_linear_684_90894)"/>
<path d="M19.7402 34.8277L20.2358 29.4218H20.8446L24.6279 34.8277H19.7402Z" fill="url(#paint2_linear_684_90894)"/>
<path d="M20.8446 29.4218H20.2358L19.7402 34.8277H24.625L20.8446 29.4218Z" fill="url(#paint3_linear_684_90894)"/>
<path d="M15.0479 14.0193L15.0535 13.8781L15.6878 12.7571L15.0479 14.0193Z" fill="url(#paint4_linear_684_90894)"/>
<path d="M15.0535 13.8781L15.0479 14.0193L15.6878 12.7571L15.0535 13.8781Z" fill="url(#paint5_linear_684_90894)"/>
<path d="M18.8001 26.8744L12.1426 19.0074L14.946 14.0654L15.048 14.0193L19.6694 26.8773L18.8001 26.8744Z" fill="url(#paint6_linear_684_90894)"/>
<path d="M19.6694 26.8773L15.048 14.0193L14.946 14.0654L12.1426 19.0074L18.8001 26.8744L19.6694 26.8773Z" fill="url(#paint7_linear_684_90894)"/>
<path d="M13.2019 26.8542L12.8168 26.7562L10.8685 23.3213C10.5061 22.6815 10.5061 21.8891 10.8685 21.2522L12.1428 19.0074L18.8031 26.8743L13.2019 26.8571V26.8542Z" fill="url(#paint8_linear_684_90894)"/>
<path d="M12.1428 19.0074L10.8685 21.2522C10.5061 21.8891 10.5061 22.6844 10.8685 23.3213L12.8168 26.7562L13.2019 26.8542L18.8031 26.8715L12.1428 19.0045V19.0074Z" fill="url(#paint9_linear_684_90894)"/>
<path d="M14.9858 13.9962L15.0481 14.0193L14.9434 14.0683L14.9858 13.9962Z" fill="url(#paint10_linear_684_90894)"/>
<path d="M14.9859 13.9962L14.9463 14.0654L15.0482 14.0193L14.9859 13.9962Z" fill="url(#paint11_linear_684_90894)"/>
<path d="M14.9854 13.9962L14.9967 13.976L15.0477 14.0193L14.9854 13.9962Z" fill="url(#paint12_linear_684_90894)"/>
<path d="M14.9854 13.9962L15.0477 14.0193L14.9967 13.976L14.9854 13.9962Z" fill="url(#paint13_linear_684_90894)"/>
<path d="M15.0225 13.9328L15.0536 13.8781L15.0479 14.0193L15.0225 13.9328Z" fill="url(#paint14_linear_684_90894)"/>
<path d="M15.0225 13.9328L15.0479 14.0193L15.0536 13.8781L15.0225 13.9328Z" fill="url(#paint15_linear_684_90894)"/>
<path d="M14.9971 13.9761L15.0226 13.9328L15.048 14.0193L14.9971 13.9761Z" fill="url(#paint16_linear_684_90894)"/>
<path d="M14.9971 13.9761L15.048 14.0193L15.0226 13.9328L14.9971 13.9761Z" fill="url(#paint17_linear_684_90894)"/>
<path d="M15.688 12.7571L16.8066 10.7832C17.169 10.1434 17.843 9.74866 18.5679 9.74866H21.6546L15.048 14.0193L14.9971 13.9761L15.688 12.7571Z" fill="url(#paint18_linear_684_90894)"/>
<path d="M18.5679 9.74866C17.843 9.74866 17.169 10.1463 16.8066 10.7832L15.688 12.7571L14.9971 13.9761L21.6546 9.74866H18.5679Z" fill="url(#paint19_linear_684_90894)"/>
<path d="M30.4669 15.2238L27.335 9.74866H30.4471C31.172 9.74866 31.846 10.1434 32.2084 10.7832L33.7291 13.4631L32.1829 15.2267H30.4669V15.2238Z" fill="url(#paint20_linear_684_90894)"/>
<path d="M32.1829 15.2267L33.7291 13.466L32.2084 10.786C31.846 10.1492 31.172 9.75153 30.4471 9.75153H27.335L30.4669 15.2267H32.1829Z" fill="url(#paint21_linear_684_90894)"/>
<path d="M32.1836 15.2267L33.7297 13.4631L34.7322 15.2296L32.1836 15.2267Z" fill="url(#paint22_linear_684_90894)"/>
<path d="M34.7322 15.2296L33.7297 13.4631L32.1836 15.2267L34.7322 15.2296Z" fill="url(#paint23_linear_684_90894)"/>
<path d="M30.0568 15.2238L25.0332 9.75154L27.3354 9.74866L30.4674 15.2238H30.0568Z" fill="url(#paint24_linear_684_90894)"/>
<path d="M30.0568 15.2238H30.4674L27.3354 9.74866H25.0332L30.0568 15.2238Z" fill="url(#paint25_linear_684_90894)"/>
<path d="M15.0479 14.0193L21.6544 9.74866H25.0327L30.0562 15.2209L24.8373 15.2152C24.5683 15.2152 24.2936 15.2613 24.0217 15.3506L15.0507 14.0193H15.0479Z" fill="url(#paint26_linear_684_90894)"/>
<path d="M24.8374 15.218L30.0563 15.2238L25.0356 9.75153H21.6573L15.0508 14.0193L24.0218 15.3506C24.2823 15.267 24.557 15.218 24.8374 15.2152V15.218Z" fill="url(#paint27_linear_684_90894)"/>
<path d="M32.5176 17.7769L36.1847 17.7885L36.3093 18.0075L35.1455 20.3906L32.5176 17.7769Z" fill="url(#paint28_linear_684_90894)"/>
<path d="M32.5176 17.7769L35.1455 20.3906L36.3093 18.0075L36.1847 17.7885L32.5176 17.7769Z" fill="url(#paint29_linear_684_90894)"/>
<path d="M31.4189 17.7741L32.5177 17.777L35.1456 20.3906L32.7612 24.4249L31.4189 17.7741Z" fill="url(#paint30_linear_684_90894)"/>
<path d="M35.1456 20.3906L32.5177 17.777L31.4189 17.7741L32.7612 24.4221L35.1456 20.3906Z" fill="url(#paint31_linear_684_90894)"/>
<path d="M19.6693 26.8773L15.0479 14.0193L24.0189 15.3506C23.3421 15.5696 22.7786 16.0307 22.4359 16.6531L20.128 20.8344L22.1867 20.771C22.7106 20.7566 23.1948 20.4569 23.4525 19.9958L24.0302 18.9585C24.4437 18.2179 25.2196 17.7568 26.0578 17.7539L29.9429 17.7654L21.8724 26.883L19.6693 26.8744V26.8773Z" fill="url(#paint32_linear_684_90894)"/>
<path d="M26.058 17.7539C25.2197 17.7539 24.4438 18.215 24.0304 18.9584L23.4527 19.9958C23.1922 20.4627 22.7136 20.7566 22.1869 20.7739L20.1282 20.8344L22.4361 16.6531C22.7873 16.0191 23.3593 15.561 24.0191 15.3506L14.9971 13.976L19.6695 26.8772L21.8726 26.8859L29.9431 17.7712L26.058 17.7597V17.7539Z" fill="url(#paint33_linear_684_90894)"/>
<path d="M21.873 26.883L29.9436 17.7654L31.4218 17.7712L32.764 24.4221L27.6017 26.177L28.9072 23.8083L26.8485 23.8717C26.3246 23.8861 25.8404 24.1858 25.5827 24.6468L25.005 25.6842C24.5915 26.4248 23.8156 26.8859 22.9774 26.8888H21.873V26.883Z" fill="url(#paint34_linear_684_90894)"/>
<path d="M31.4188 17.7741L29.9407 17.7683L21.8701 26.883H22.9745C23.8127 26.883 24.5886 26.4248 25.0021 25.6813L25.5797 24.6439C25.8403 24.1771 26.3188 23.8832 26.8455 23.8659L28.9042 23.8054L27.5959 26.1741L32.7583 24.4221L31.416 17.7712L31.4188 17.7741Z" fill="url(#paint35_linear_684_90894)"/>
<path d="M21.9268 29.4217H24.1978C25.1918 29.4217 26.1121 28.8685 26.5992 27.9867L27.5988 26.1741L32.7611 24.4221L29.8585 33.1938L21.9268 29.4246V29.4217Z" fill="url(#paint36_linear_684_90894)"/>
<path d="M27.5988 26.177L26.5992 27.9896C26.1121 28.8742 25.1946 29.4218 24.1978 29.4275H21.9268L29.8585 33.1938L32.7611 24.425L27.5988 26.177Z" fill="url(#paint37_linear_684_90894)"/>
<path d="M24.6251 34.8277L20.8447 29.4218H21.9293L29.8611 33.191L27.961 34.8277H24.6251Z" fill="url(#paint38_linear_684_90894)"/>
<path d="M21.9293 29.4218H20.8447L24.6251 34.8277H27.961L29.8611 33.1938L21.9293 29.4218Z" fill="url(#paint39_linear_684_90894)"/>
<path d="M30.1105 34.8277L29.8613 33.1909L31.8237 34.2773C31.4443 34.6318 30.9572 34.8277 30.4503 34.8277H30.1105Z" fill="url(#paint40_linear_684_90894)"/>
<path d="M30.1105 34.8277H30.4503C30.9657 34.8277 31.4528 34.6231 31.8237 34.2773L29.8613 33.1909L30.1105 34.8248V34.8277Z" fill="url(#paint41_linear_684_90894)"/>
<path d="M27.9609 34.8277L29.8611 33.1909L30.1102 34.8277H27.9609Z" fill="url(#paint42_linear_684_90894)"/>
<path d="M27.9609 34.8277H30.1102L29.8611 33.1938L27.9609 34.8277Z" fill="url(#paint43_linear_684_90894)"/>
<path d="M35.1452 20.3906L37.9685 23.644L35.3406 28.2777L34.9668 28.3411L35.1452 20.3906Z" fill="url(#paint44_linear_684_90894)"/>
<path d="M34.9668 28.3411L35.3406 28.2748L37.9656 23.6469L35.1452 20.3906L34.9668 28.3411Z" fill="url(#paint45_linear_684_90894)"/>
<path d="M32.7607 24.4221L35.1451 20.3906L34.9667 28.3411L32.7607 24.4221Z" fill="url(#paint46_linear_684_90894)"/>
<path d="M32.7607 24.4221L34.9667 28.3411L35.1451 20.3906L32.7607 24.4221Z" fill="url(#paint47_linear_684_90894)"/>
<path d="M29.8613 33.1938L32.7611 24.4221L34.967 28.3411L29.8613 33.1938Z" fill="url(#paint48_linear_684_90894)"/>
<path d="M29.8613 33.1938L34.967 28.3411L32.7611 24.4221L29.8613 33.1938Z" fill="url(#paint49_linear_684_90894)"/>
<path d="M34.9668 28.3411L35.3406 28.2748L35.165 28.5832L34.9668 28.3411Z" fill="url(#paint50_linear_684_90894)"/>
<path d="M35.165 28.5832L35.3406 28.2748L34.9668 28.3411L35.165 28.5832Z" fill="url(#paint51_linear_684_90894)"/>
<path d="M29.8613 33.191L34.967 28.3411L35.1652 28.5832L33.5171 31.4879L29.8613 33.1938V33.191Z" fill="url(#paint52_linear_684_90894)"/>
<path d="M34.967 28.3411L29.8613 33.1938L33.5171 31.4879L35.1652 28.5832L34.967 28.3411Z" fill="url(#paint53_linear_684_90894)"/>
<path d="M29.8613 33.1938L33.5171 31.4879L32.2117 33.7932C32.1126 33.969 31.9823 34.1304 31.8237 34.2773L29.8613 33.1909V33.1938Z" fill="url(#paint54_linear_684_90894)"/>
<path d="M31.8238 34.2773C31.9739 34.1361 32.107 33.9748 32.2118 33.7932L33.5201 31.4879L29.8643 33.1909L31.8267 34.2773H31.8238Z" fill="url(#paint55_linear_684_90894)"/>
<path d="M12.8702 26.8542L12.8164 26.7591L13.2015 26.8542H12.8702Z" fill="url(#paint56_linear_684_90894)"/>
<path d="M12.8702 26.8542H13.2015L12.8164 26.7591L12.8702 26.8542Z" fill="url(#paint57_linear_684_90894)"/>
<path d="M14.3232 29.4131L18.7181 29.4188L15.2691 31.0816L14.3232 29.4131Z" fill="url(#paint58_linear_684_90894)"/>
<path d="M14.3232 29.4131L15.2691 31.0816L18.7181 29.4188L14.3232 29.4131Z" fill="url(#paint59_linear_684_90894)"/>
<path d="M18.5676 34.8277C17.8426 34.8277 17.1687 34.4301 16.8062 33.7932L15.2686 31.0816L18.7176 29.416H20.2355L19.7399 34.8249H18.5676V34.8277Z" fill="url(#paint60_linear_684_90894)"/>
<path d="M18.7176 29.4189L15.2686 31.0816L16.8062 33.7932C17.1687 34.4301 17.8426 34.8277 18.5676 34.8277H19.7399L20.2355 29.4217H18.7176V29.4189Z" fill="url(#paint61_linear_684_90894)"/>
<path d="M49.2248 22.1311C49.2956 23.3126 49.0294 24.4739 48.4489 25.4969L47.0642 27.9377L44.9375 28.4218L49.2276 22.1283L49.2248 22.1311Z" fill="url(#paint62_linear_684_90894)"/>
<path d="M49.2248 22.1312L44.9375 28.4218L47.0642 27.9377L48.4489 25.4969C49.0379 24.4595 49.2956 23.2867 49.2276 22.1312H49.2248Z" fill="url(#paint63_linear_684_90894)"/>
<path d="M30.8522 45L21.2129 40.836H27.2049L31.7867 45H30.8522Z" fill="url(#paint64_linear_684_90894)"/>
<path d="M21.2129 40.836L30.8522 45H31.7867L27.2049 40.836H21.2129Z" fill="url(#paint65_linear_684_90894)"/>
<path d="M17.5742 45L18.268 40.836H21.213L30.8524 45H17.5742Z" fill="url(#paint66_linear_684_90894)"/>
<path d="M18.268 40.836L17.5742 45H30.8524L21.213 40.836H18.268Z" fill="url(#paint67_linear_684_90894)"/>
<path d="M15.2524 45C15.2269 45 15.2043 45 15.1788 45C15.1618 45 15.1448 45 15.125 45L17.7217 40.8389H18.2654L17.5716 45.0029H15.2496L15.2524 45Z" fill="url(#paint68_linear_684_90894)"/>
<path d="M17.7237 40.836L15.127 44.9942C15.1694 44.9942 15.2091 44.9971 15.2516 44.9971H17.5736L18.2674 40.8331H17.7237V40.836Z" fill="url(#paint69_linear_684_90894)"/>
<path d="M43.9467 25.1252C44.9378 23.3731 44.9378 21.2032 43.9467 19.4541L40.7949 13.8954L45.5948 14.4717L48.4492 19.5031C48.9023 20.3013 49.1713 21.209 49.2279 22.1311L44.9378 28.4247L43.9467 25.1281V25.1252Z" fill="url(#paint70_linear_684_90894)"/>
<path d="M43.9466 19.4541C44.9377 21.2032 44.9377 23.3731 43.9466 25.1223L44.9377 28.4218L49.225 22.1311C49.1712 21.2205 48.9107 20.3186 48.4463 19.5031L45.5918 14.4717L40.792 13.8954L43.9437 19.4541H43.9466Z" fill="url(#paint71_linear_684_90894)"/>
<path d="M43.207 26.4277L43.9461 25.1252L44.9372 28.4218L43.207 26.4277Z" fill="url(#paint72_linear_684_90894)"/>
<path d="M43.207 26.4277L44.9372 28.4218L43.9461 25.1252L43.207 26.4277Z" fill="url(#paint73_linear_684_90894)"/>
<path d="M26.3018 3.74039L26.2451 0H29.0542H33.9815C34.7687 0 35.5361 0.158491 36.2611 0.466829C36.9775 0.772285 37.6175 1.21318 38.1669 1.7751L27.2985 3.74039H26.3018Z" fill="url(#paint74_linear_684_90894)"/>
<path d="M27.2985 3.74039L38.1669 1.77798C37.0738 0.657018 35.5758 0 33.9815 0H26.2451L26.2989 3.74039H27.2957H27.2985Z" fill="url(#paint75_linear_684_90894)"/>
<path d="M15.1271 44.9971C14.2011 44.977 13.278 44.7291 12.4624 44.2825C11.6497 43.8358 10.9417 43.1932 10.415 42.4209L15.668 40.6112C16.172 40.7582 16.6902 40.8331 17.2028 40.8331H17.7267L15.1299 44.9942L15.1271 44.9971Z" fill="url(#paint76_linear_684_90894)"/>
<path d="M17.1999 40.836C16.6731 40.836 16.1578 40.7582 15.665 40.6141L10.4121 42.4238C11.4825 43.9943 13.2325 44.9568 15.1242 44.9971L17.7209 40.8389H17.197L17.1999 40.836Z" fill="url(#paint77_linear_684_90894)"/>
<path d="M44.9378 28.4218L47.0645 27.9377L45.1757 31.266L44.4961 31.6723L44.9378 28.4218Z" fill="url(#paint78_linear_684_90894)"/>
<path d="M44.4961 31.6694L45.1757 31.266L47.0645 27.9377L44.9378 28.4218L44.4961 31.6694Z" fill="url(#paint79_linear_684_90894)"/>
<path d="M13.2107 1.99988L18.2003 1.61086L17.1186 3.74328C15.5922 3.76634 14.1254 4.44064 13.0918 5.59043L13.2136 2.00276L13.2107 1.99988Z" fill="url(#paint80_linear_684_90894)"/>
<path d="M17.1186 3.74328L18.2003 1.61086L13.2136 1.99988L13.0918 5.58755C14.1169 4.44929 15.5724 3.76634 17.1186 3.74328Z" fill="url(#paint81_linear_684_90894)"/>
<path d="M37.5489 8.17527L36.6399 6.57306C35.6488 4.8239 33.7997 3.74039 31.8174 3.74039H27.3008L38.1691 1.7751C38.5259 2.14107 38.8346 2.55315 39.0866 2.99404L39.4349 3.60784L38.424 8.50378L37.5518 8.17239L37.5489 8.17527Z" fill="url(#paint82_linear_684_90894)"/>
<path d="M31.8155 3.7404C33.7977 3.7404 35.6469 4.82678 36.6408 6.57307L37.5498 8.17527L38.422 8.50666L39.433 3.6136L39.0846 2.99981C38.8298 2.54739 38.5183 2.14108 38.1671 1.78087L27.2988 3.74328H31.8155V3.7404Z" fill="url(#paint83_linear_684_90894)"/>
<path d="M39.4328 3.61359L41.9474 8.0427L38.4219 8.50664L39.4328 3.61359Z" fill="url(#paint84_linear_684_90894)"/>
<path d="M41.9474 8.0427L39.4328 3.61359L38.4219 8.50664L41.9474 8.0427Z" fill="url(#paint85_linear_684_90894)"/>
<path d="M40.0501 12.5842L38.4219 8.50667L41.9474 8.04272L43.3548 10.5267L40.6901 13.7167L40.0501 12.5842Z" fill="url(#paint86_linear_684_90894)"/>
<path d="M40.0501 12.5842L40.6901 13.7138L43.3548 10.5267L41.9474 8.04272L38.4219 8.50667L40.0501 12.5842Z" fill="url(#paint87_linear_684_90894)"/>
<path d="M40.7942 13.8982L40.6895 13.7167L43.3541 10.5267L45.5941 14.4746L40.7942 13.8982Z" fill="url(#paint88_linear_684_90894)"/>
<path d="M40.7942 13.8982L45.5941 14.4717L43.3541 10.5267L40.6895 13.7138L40.7942 13.8982Z" fill="url(#paint89_linear_684_90894)"/>
<path d="M6.58105 15.0451L7.92898 14.4169L7.17289 15.7483L6.58105 15.0451Z" fill="url(#paint90_linear_684_90894)"/>
<path d="M6.58105 15.0451L7.17289 15.7483L7.92898 14.4169L6.58105 15.0451Z" fill="url(#paint91_linear_684_90894)"/>
<path d="M5.37653e-05 22.6585C-0.0282639 21.549 0.243586 20.4569 0.784453 19.5031L1.15258 18.8576L6.57825 15.0451L5.37653e-05 22.6585Z" fill="url(#paint92_linear_684_90894)"/>
<path d="M1.15228 18.8576L0.784149 19.5031C0.234787 20.4771 -0.025736 21.5721 -0.000250109 22.6585L6.57794 15.0451L1.15228 18.8547V18.8576Z" fill="url(#paint93_linear_684_90894)"/>
<path d="M0.741923 25.4133C0.283177 24.5748 0.0283177 23.621 0 22.6585L6.5782 15.0451L7.17287 15.7454L5.06886 19.4541C4.07774 21.2032 4.07774 23.3731 5.06886 25.1223L5.98636 26.7418L0.739091 25.4162L0.741923 25.4133Z" fill="url(#paint94_linear_684_90894)"/>
<path d="M5.07169 25.1223C4.08058 23.3731 4.08058 21.2032 5.07169 19.4541L7.1757 15.7454L6.58103 15.0451L0 22.6585C0.0254859 23.6094 0.27185 24.5546 0.739091 25.4133L5.98352 26.7389L5.06603 25.1223H5.07169Z" fill="url(#paint95_linear_684_90894)"/>
<path d="M7.62881 10.1319L9.87723 10.982L7.92898 14.417L6.58105 15.0452L7.62881 10.1319Z" fill="url(#paint96_linear_684_90894)"/>
<path d="M9.87723 10.982L7.63164 10.1319L6.58105 15.0452L7.92898 14.417L9.87723 10.982Z" fill="url(#paint97_linear_684_90894)"/>
<path d="M7.63184 10.1319L7.70546 7.88422L10.39 10.08L9.87743 10.982L7.63184 10.1319Z" fill="url(#paint98_linear_684_90894)"/>
<path d="M10.3871 10.0829L7.70546 7.88422L7.63184 10.1319L9.87743 10.982L10.3871 10.0829Z" fill="url(#paint99_linear_684_90894)"/>
<path d="M19.1914 0H20.0239L19.9985 0.775167L19.1914 0Z" fill="url(#paint100_linear_684_90894)"/>
<path d="M20.0239 0H19.1914L19.9985 0.775167L20.0239 0Z" fill="url(#paint101_linear_684_90894)"/>
<path d="M17.0781 0H19.1906L19.9977 0.775167L18.1995 1.61373L17.0781 0Z" fill="url(#paint102_linear_684_90894)"/>
<path d="M19.9977 0.775167L19.1906 0H17.0781L18.1995 1.61373L19.9977 0.775167Z" fill="url(#paint103_linear_684_90894)"/>
<path d="M13.1337 0.403432C13.8161 0.135438 14.5298 0 15.2519 0H17.0755L18.1969 1.61373L13.2073 2.00275L13.1309 0.406314L13.1337 0.403432Z" fill="url(#paint104_linear_684_90894)"/>
<path d="M18.1999 1.61373L17.0785 0H15.2549C14.5186 0 13.8022 0.192083 13.1367 0.403432L13.2132 1.99987L18.1999 1.61085V1.61373Z" fill="url(#paint105_linear_684_90894)"/>
<path d="M10.6846 4.83831L13.2133 1.99988L13.0944 5.58754C12.8169 5.89588 12.579 6.22727 12.3808 6.57307L11.6134 7.92457L10.6846 4.83543V4.83831Z" fill="url(#paint106_linear_684_90894)"/>
<path d="M12.378 6.57594C12.5819 6.21862 12.8226 5.89011 13.0916 5.59041L13.2133 2.00275L10.6846 4.84118L11.6134 7.92744L12.3808 6.57594H12.378Z" fill="url(#paint107_linear_684_90894)"/>
<path d="M7.57227 7.54131L9.64229 3.89313L10.6844 4.83831L7.70536 7.88423L7.57227 7.54131Z" fill="url(#paint108_linear_684_90894)"/>
<path d="M10.6844 4.83831L9.64229 3.89313L7.57227 7.54131L7.70536 7.88423L10.6844 4.83831Z" fill="url(#paint109_linear_684_90894)"/>
<path d="M7.70508 7.88423L10.6841 4.83832L11.6129 7.92458L10.3896 10.0829L7.70508 7.88423Z" fill="url(#paint110_linear_684_90894)"/>
<path d="M11.6101 7.92458L10.6841 4.83832L7.70508 7.88423L10.3868 10.0829L11.6101 7.92458Z" fill="url(#paint111_linear_684_90894)"/>
<path d="M19.6076 3.74039L18.2002 1.61372L19.9984 0.775162L22.4309 3.74039H19.6076Z" fill="url(#paint112_linear_684_90894)"/>
<path d="M22.4309 3.74039L19.9984 0.775162L18.2002 1.61372L19.6076 3.74039H22.4309Z" fill="url(#paint113_linear_684_90894)"/>
<path d="M18.2 1.61374L19.6074 3.74328H17.2032C17.1891 3.74328 17.1721 3.74328 17.1579 3.74328C17.1466 3.74328 17.1324 3.74328 17.1211 3.74328L18.2028 1.61086L18.2 1.61374Z" fill="url(#paint114_linear_684_90894)"/>
<path d="M17.2002 3.7404H19.6044L18.197 1.61086L17.1152 3.74328C17.1436 3.74328 17.1719 3.74328 17.1974 3.74328L17.2002 3.7404Z" fill="url(#paint115_linear_684_90894)"/>
<path d="M37.5498 8.17526L38.422 8.50665L38.0057 8.98213L37.5498 8.17526Z" fill="url(#paint116_linear_684_90894)"/>
<path d="M38.422 8.50665L37.5498 8.17526L38.0057 8.97925L38.422 8.50665Z" fill="url(#paint117_linear_684_90894)"/>
<path d="M38.0049 8.98213L38.4211 8.50665L40.0494 12.5842L38.0049 8.98213Z" fill="url(#paint118_linear_684_90894)"/>
<path d="M40.0494 12.5842L38.4211 8.50665L38.0049 8.97924L40.0494 12.5842Z" fill="url(#paint119_linear_684_90894)"/>
<path d="M44.4959 31.6694L44.8018 31.9259L39.9764 40.4297L39.7754 40.5075L44.4959 31.6694Z" fill="url(#paint120_linear_684_90894)"/>
<path d="M39.7754 40.5075L39.9764 40.4297L44.7989 31.9288L44.4959 31.6694L39.7754 40.5075Z" fill="url(#paint121_linear_684_90894)"/>
<path d="M39.7754 40.5075L39.9764 40.4268L39.9056 40.5565L39.7754 40.5075Z" fill="url(#paint122_linear_684_90894)"/>
<path d="M39.9056 40.5565L39.9764 40.4297L39.7754 40.5075L39.9056 40.5565Z" fill="url(#paint123_linear_684_90894)"/>
<path d="M39.7754 40.5075L39.9056 40.5536L39.8434 40.666L39.7754 40.5075Z" fill="url(#paint124_linear_684_90894)"/>
<path d="M39.8434 40.666L39.9056 40.5565L39.7754 40.5075L39.8434 40.666Z" fill="url(#paint125_linear_684_90894)"/>
<path d="M33.6758 45L39.7754 40.5046L39.8434 40.6631L39.0845 42.0002C38.5691 42.9108 37.8215 43.6687 36.9295 44.1931C36.0346 44.7176 35.018 44.9971 33.9844 44.9971H33.6786L33.6758 45Z" fill="url(#paint126_linear_684_90894)"/>
<path d="M33.6757 45H33.9815C36.0855 45 38.0309 43.8589 39.0815 42.0031L39.8404 40.666L39.7725 40.5075L33.6729 45.0029L33.6757 45Z" fill="url(#paint127_linear_684_90894)"/>
<path d="M32.5141 45L31.877 40.8331C32.7265 40.8216 33.5788 40.6084 34.3378 40.2165C35.0938 39.8245 35.7621 39.254 36.269 38.5681L39.7748 40.5075L33.6751 45.0029H32.5141V45Z" fill="url(#paint128_linear_684_90894)"/>
<path d="M36.2719 38.5681C35.2411 39.9658 33.6157 40.8158 31.877 40.836L32.5141 45.0029H33.6751L39.7748 40.5075L36.2719 38.5681Z" fill="url(#paint129_linear_684_90894)"/>
<path d="M31.7869 45L27.2051 40.836H31.818C31.818 40.836 31.8407 40.836 31.8492 40.836C31.8577 40.836 31.869 40.836 31.8775 40.836L32.5146 45.0029H31.784L31.7869 45Z" fill="url(#paint130_linear_684_90894)"/>
<path d="M31.8152 40.836H27.2051L31.7869 45H32.5146L31.8775 40.8331C31.8577 40.8331 31.8378 40.8331 31.8152 40.8331V40.836Z" fill="url(#paint131_linear_684_90894)"/>
<path d="M43.2069 26.4277L44.9371 28.4218L41.7627 28.9751L43.2069 26.4277Z" fill="url(#paint132_linear_684_90894)"/>
<path d="M41.7627 28.9722L44.9371 28.4218L43.2069 26.4277L41.7627 28.9722Z" fill="url(#paint133_linear_684_90894)"/>
<path d="M11.9561 1.02875C12.3185 0.778045 12.715 0.570566 13.1341 0.406311L13.2105 2.00563L11.9561 1.03163V1.02875Z" fill="url(#paint134_linear_684_90894)"/>
<path d="M13.1341 0.403427C12.7206 0.5648 12.3242 0.775161 11.9561 1.02587L13.2105 1.99987L13.1341 0.403427Z" fill="url(#paint135_linear_684_90894)"/>
<path d="M9.93066 3.38594L10.1515 2.99692C10.5961 2.21599 11.2191 1.53304 11.9582 1.02586L13.2127 1.99986L10.6839 4.8383L9.93066 3.38594Z" fill="url(#paint136_linear_684_90894)"/>
<path d="M13.2107 1.99986L11.9563 1.02586C11.2285 1.52727 10.6055 2.19294 10.1496 2.99692L9.92871 3.38594L10.682 4.8383L13.2107 1.99986Z" fill="url(#paint137_linear_684_90894)"/>
<path d="M9.64258 3.89313L9.93142 3.38596L10.6847 4.83831L9.64258 3.89313Z" fill="url(#paint138_linear_684_90894)"/>
<path d="M9.93142 3.38596L9.64258 3.89313L10.6847 4.83831L9.93142 3.38596Z" fill="url(#paint139_linear_684_90894)"/>
<path d="M20.0234 0H20.1792H21.4053L19.9951 0.775167L20.0234 0Z" fill="url(#paint140_linear_684_90894)"/>
<path d="M21.4054 0H20.1793H20.0235L19.998 0.775167L21.4054 0Z" fill="url(#paint141_linear_684_90894)"/>
<path d="M26.1938 3.74039L23.8916 0H26.2476L26.3014 3.74039H26.1938Z" fill="url(#paint142_linear_684_90894)"/>
<path d="M26.3015 3.74039L26.2477 0H23.8945L26.1939 3.74039H26.3015Z" fill="url(#paint143_linear_684_90894)"/>
<path d="M22.431 3.74039L19.3613 0H21.4059H23.3201L24.9173 3.74039H22.431Z" fill="url(#paint144_linear_684_90894)"/>
<path d="M22.431 3.74039H24.9173L23.3201 0H21.4059H19.3613L22.431 3.74039Z" fill="url(#paint145_linear_684_90894)"/>
<path d="M22.4309 3.74039L19.4717 0H23.8949L26.1943 3.74039H22.4309Z" fill="url(#paint146_linear_684_90894)"/>
<path d="M26.1943 3.74039L23.8949 0H19.4717L22.4309 3.74039H26.1943Z" fill="url(#paint147_linear_684_90894)"/>
<path d="M40.5596 31.0931L44.9375 28.4218L44.4958 31.6694L40.1094 31.8885L40.5596 31.0931Z" fill="url(#paint148_linear_684_90894)"/>
<path d="M40.1094 31.8885L44.4958 31.6694L44.9375 28.4218L40.5596 31.0931L40.1094 31.8885Z" fill="url(#paint149_linear_684_90894)"/>
<path d="M41.7631 28.9722L44.9375 28.4218L40.5596 31.0931L41.7631 28.9722Z" fill="url(#paint150_linear_684_90894)"/>
<path d="M40.5596 31.0931L44.9375 28.4218L41.7631 28.9722L40.5596 31.0931Z" fill="url(#paint151_linear_684_90894)"/>
<path d="M39.2764 33.3523L40.1089 31.8884L44.4953 31.6694L39.7748 40.5075L39.2764 33.3523Z" fill="url(#paint152_linear_684_90894)"/>
<path d="M39.2764 33.3523L39.7748 40.5075L44.4953 31.6694L40.1089 31.8884L39.2764 33.3523Z" fill="url(#paint153_linear_684_90894)"/>
<path d="M36.2695 38.5681C36.4111 38.3751 36.5329 38.1907 36.6377 38.0033L39.2769 33.3552L39.7753 40.5104L36.2695 38.571V38.5681Z" fill="url(#paint154_linear_684_90894)"/>
<path d="M36.6406 38.0033C36.5273 38.2022 36.4056 38.3895 36.2725 38.5681L39.7754 40.5075L39.277 33.3552L36.6378 38.0033H36.6406Z" fill="url(#paint155_linear_684_90894)"/>
<path d="M0.787496 25.4969C0.779 25.4825 0.770505 25.4652 0.76201 25.4508C0.756346 25.4393 0.747851 25.4249 0.742188 25.4134L5.98945 26.7389L10.3617 34.4474L6.83049 36.1504L0.787496 25.4969Z" fill="url(#paint156_linear_684_90894)"/>
<path d="M5.98955 26.7418L0.745117 25.4162C0.759276 25.445 0.773435 25.4739 0.790425 25.4998L6.83625 36.1533L10.3675 34.4502L5.99521 26.7418H5.98955Z" fill="url(#paint157_linear_684_90894)"/>
<path d="M8.28561 38.718L6.83008 36.1533L10.3613 34.4503L12.3775 38.0033C12.6182 38.4298 12.9155 38.8246 13.261 39.1733L8.28561 38.718Z" fill="url(#paint158_linear_684_90894)"/>
<path d="M12.3775 38.0033L10.3613 34.4503L6.83008 36.1533L8.28561 38.718L13.261 39.1733C12.9212 38.8275 12.6239 38.4356 12.3775 38.0033Z" fill="url(#paint159_linear_684_90894)"/>
<path d="M10.4157 42.4238C10.3081 42.2682 10.226 42.1356 10.1524 42.006L8.28906 38.7209L13.2645 39.1762C13.9299 39.8533 14.7625 40.349 15.6686 40.617L10.4157 42.4267V42.4238Z" fill="url(#paint160_linear_684_90894)"/>
<path d="M13.2615 39.1733L8.28613 38.718L10.1494 42.0031C10.2316 42.1472 10.3193 42.2855 10.4128 42.4209L15.6657 40.6112C14.7596 40.3461 13.9298 39.8505 13.2615 39.1704V39.1733Z" fill="url(#paint161_linear_684_90894)"/>
<path d="M7.41113 7.82946L7.57254 7.54129L7.70847 7.88421L7.41113 7.82946Z" fill="url(#paint162_linear_684_90894)"/>
<path d="M7.57254 7.54129L7.41113 7.82946L7.70564 7.88421L7.57254 7.54129Z" fill="url(#paint163_linear_684_90894)"/>
<path d="M6.35742 9.68526L7.40801 7.82947L7.70534 7.88422L7.63172 10.1319L6.35742 9.68526Z" fill="url(#paint164_linear_684_90894)"/>
<path d="M7.70534 7.88422L7.41084 7.82947L6.35742 9.68526L7.63172 10.1319L7.70534 7.88422Z" fill="url(#paint165_linear_684_90894)"/>
<path d="M4.31055 13.2931L6.35791 9.68527L7.63221 10.1319L6.58162 15.0452L4.31055 13.2931Z" fill="url(#paint166_linear_684_90894)"/>
<path d="M7.63221 10.1319L6.35791 9.68527L4.31055 13.2902L6.58162 15.0452L7.63221 10.1319Z" fill="url(#paint167_linear_684_90894)"/>
<path d="M1.15234 18.8576L4.30976 13.2902L6.58084 15.0452L1.15234 18.8576Z" fill="url(#paint168_linear_684_90894)"/>
<path d="M4.30976 13.2902L1.15234 18.8576L6.58084 15.0452L4.30976 13.2902Z" fill="url(#paint169_linear_684_90894)"/>
<path d="M44.4961 31.6695L45.1757 31.266L44.8416 31.8539L44.4961 31.6695Z" fill="url(#paint170_linear_684_90894)"/>
<path d="M44.8416 31.8539L45.1757 31.266L44.4961 31.6695L44.8416 31.8539Z" fill="url(#paint171_linear_684_90894)"/>
<path d="M44.4961 31.6694L44.8416 31.8539L44.7991 31.9288L44.4961 31.6694Z" fill="url(#paint172_linear_684_90894)"/>
<path d="M44.7991 31.9288L44.8416 31.8539L44.4961 31.6694L44.7991 31.9288Z" fill="url(#paint173_linear_684_90894)"/>
</g>
<defs>
<linearGradient id="paint0_linear_684_90894" x1="44.0601" y1="16.7949" x2="32.4483" y2="20.7401" gradientUnits="userSpaceOnUse">
<stop stop-color="#69AA44"/>
<stop offset="1" stop-color="#54A245"/>
</linearGradient>
<linearGradient id="paint1_linear_684_90894" x1="44.0601" y1="16.7949" x2="32.4483" y2="20.7401" gradientUnits="userSpaceOnUse">
<stop stop-color="#69AA44"/>
<stop offset="1" stop-color="#54A245"/>
</linearGradient>
<linearGradient id="paint2_linear_684_90894" x1="27.127" y1="30.19" x2="17.4215" y2="34.9912" gradientUnits="userSpaceOnUse">
<stop stop-color="#7F297B"/>
<stop offset="1" stop-color="#852C80"/>
</linearGradient>
<linearGradient id="paint3_linear_684_90894" x1="27.127" y1="30.19" x2="17.4215" y2="34.9912" gradientUnits="userSpaceOnUse">
<stop stop-color="#7F297B"/>
<stop offset="1" stop-color="#852C80"/>
</linearGradient>
<linearGradient id="paint4_linear_684_90894" x1="19.4846" y1="8.77802" x2="12.6356" y2="8.90742" gradientUnits="userSpaceOnUse">
<stop stop-color="#DF5E26"/>
<stop offset="1" stop-color="#DD472A"/>
</linearGradient>
<linearGradient id="paint5_linear_684_90894" x1="19.4846" y1="8.77802" x2="12.6356" y2="8.90742" gradientUnits="userSpaceOnUse">
<stop stop-color="#DF5E26"/>
<stop offset="1" stop-color="#DD472A"/>
</linearGradient>
<linearGradient id="paint6_linear_684_90894" x1="24.5333" y1="17.9764" x2="8.92971" y2="26.7152" gradientUnits="userSpaceOnUse">
<stop stop-color="#DF2C34"/>
<stop offset="1" stop-color="#CF1E53"/>
</linearGradient>
<linearGradient id="paint7_linear_684_90894" x1="24.5333" y1="17.9764" x2="8.92971" y2="26.7152" gradientUnits="userSpaceOnUse">
<stop stop-color="#DF2C34"/>
<stop offset="1" stop-color="#CF1E53"/>
</linearGradient>
<linearGradient id="paint8_linear_684_90894" x1="23.2847" y1="21.8391" x2="10.3249" y2="32.8554" gradientUnits="userSpaceOnUse">
<stop stop-color="#B02474"/>
<stop offset="1" stop-color="#DF2B62"/>
</linearGradient>
<linearGradient id="paint9_linear_684_90894" x1="23.2847" y1="21.8391" x2="10.3249" y2="32.8555" gradientUnits="userSpaceOnUse">
<stop stop-color="#B02474"/>
<stop offset="1" stop-color="#DF2B62"/>
</linearGradient>
<linearGradient id="paint10_linear_684_90894" x1="15.0762" y1="13.9933" x2="9.72438" y2="16.8718" gradientUnits="userSpaceOnUse">
<stop stop-color="#DB322B"/>
<stop offset="1" stop-color="#DE293E"/>
</linearGradient>
<linearGradient id="paint11_linear_684_90894" x1="15.0763" y1="13.9933" x2="9.77734" y2="16.8437" gradientUnits="userSpaceOnUse">
<stop stop-color="#DB322B"/>
<stop offset="1" stop-color="#DE293E"/>
</linearGradient>
<linearGradient id="paint12_linear_684_90894" x1="17.8725" y1="14.123" x2="15.6991" y2="16.7604" gradientUnits="userSpaceOnUse">
<stop stop-color="#DD312E"/>
<stop offset="1" stop-color="#DC352B"/>
</linearGradient>
<linearGradient id="paint13_linear_684_90894" x1="17.7651" y1="14.1193" x2="15.6743" y2="16.6558" gradientUnits="userSpaceOnUse">
<stop stop-color="#DD312E"/>
<stop offset="1" stop-color="#DC352B"/>
</linearGradient>
<linearGradient id="paint14_linear_684_90894" x1="18.1603" y1="10.9238" x2="11.5016" y2="11.5577" gradientUnits="userSpaceOnUse">
<stop stop-color="#DD472A"/>
<stop offset="1" stop-color="#E23E2E"/>
</linearGradient>
<linearGradient id="paint15_linear_684_90894" x1="18.1603" y1="10.9238" x2="11.5016" y2="11.5577" gradientUnits="userSpaceOnUse">
<stop stop-color="#DD472A"/>
<stop offset="1" stop-color="#E23E2E"/>
</linearGradient>
<linearGradient id="paint16_linear_684_90894" x1="18.3295" y1="12.582" x2="11.9453" y2="15.674" gradientUnits="userSpaceOnUse">
<stop stop-color="#DC3629"/>
<stop offset="1" stop-color="#E23D2D"/>
</linearGradient>
<linearGradient id="paint17_linear_684_90894" x1="18.3295" y1="12.582" x2="11.9453" y2="15.674" gradientUnits="userSpaceOnUse">
<stop stop-color="#DC3629"/>
<stop offset="1" stop-color="#E23D2D"/>
</linearGradient>
<linearGradient id="paint18_linear_684_90894" x1="24.0521" y1="6.67116" x2="13.8431" y2="9.04083" gradientUnits="userSpaceOnUse">
<stop stop-color="#E98A24"/>
<stop offset="1" stop-color="#E28227"/>
</linearGradient>
<linearGradient id="paint19_linear_684_90894" x1="24.0521" y1="6.67116" x2="13.8431" y2="9.04083" gradientUnits="userSpaceOnUse">
<stop stop-color="#E98A24"/>
<stop offset="1" stop-color="#E28227"/>
</linearGradient>
<linearGradient id="paint20_linear_684_90894" x1="35.8972" y1="11.265" x2="27.0341" y2="18.0049" gradientUnits="userSpaceOnUse">
<stop stop-color="#E7DC1C"/>
<stop offset="1" stop-color="#F0BF1C"/>
</linearGradient>
<linearGradient id="paint21_linear_684_90894" x1="35.8972" y1="11.265" x2="27.0341" y2="18.0049" gradientUnits="userSpaceOnUse">
<stop stop-color="#E7DC1C"/>
<stop offset="1" stop-color="#F0BF1C"/>
</linearGradient>
<linearGradient id="paint22_linear_684_90894" x1="38.6812" y1="11.9293" x2="30.6465" y2="14.8985" gradientUnits="userSpaceOnUse">
<stop stop-color="#DAD725"/>
<stop offset="1" stop-color="#C0C830"/>
</linearGradient>
<linearGradient id="paint23_linear_684_90894" x1="38.6812" y1="11.9293" x2="30.6465" y2="14.8985" gradientUnits="userSpaceOnUse">
<stop stop-color="#DAD725"/>
<stop offset="1" stop-color="#C0C830"/>
</linearGradient>
<linearGradient id="paint24_linear_684_90894" x1="34.002" y1="10.9643" x2="25.1178" y2="17.2579" gradientUnits="userSpaceOnUse">
<stop stop-color="#EBAF20"/>
<stop offset="1" stop-color="#EBB81F"/>
</linearGradient>
<linearGradient id="paint25_linear_684_90894" x1="34.002" y1="10.9643" x2="25.1178" y2="17.2579" gradientUnits="userSpaceOnUse">
<stop stop-color="#EBAF20"/>
<stop offset="1" stop-color="#EBB81F"/>
</linearGradient>
<linearGradient id="paint26_linear_684_90894" x1="32.6796" y1="11.6861" x2="21.7245" y2="21.5351" gradientUnits="userSpaceOnUse">
<stop stop-color="#E98A24"/>
<stop offset="1" stop-color="#E28227"/>
</linearGradient>
<linearGradient id="paint27_linear_684_90894" x1="32.6797" y1="11.6861" x2="21.7246" y2="21.5351" gradientUnits="userSpaceOnUse">
<stop stop-color="#E98A24"/>
<stop offset="1" stop-color="#E28227"/>
</linearGradient>
<linearGradient id="paint28_linear_684_90894" x1="38.4116" y1="17.1331" x2="31.357" y2="20.5246" gradientUnits="userSpaceOnUse">
<stop stop-color="#A9C138"/>
<stop offset="1" stop-color="#A7C139"/>
</linearGradient>
<linearGradient id="paint29_linear_684_90894" x1="38.4116" y1="17.1331" x2="31.357" y2="20.5246" gradientUnits="userSpaceOnUse">
<stop stop-color="#A9C138"/>
<stop offset="1" stop-color="#A7C139"/>
</linearGradient>
<linearGradient id="paint30_linear_684_90894" x1="36.067" y1="18.5301" x2="28.2245" y2="20.8086" gradientUnits="userSpaceOnUse">
<stop stop-color="#80B641"/>
<stop offset="1" stop-color="#84B941"/>
</linearGradient>
<linearGradient id="paint31_linear_684_90894" x1="36.067" y1="18.5301" x2="28.2245" y2="20.8086" gradientUnits="userSpaceOnUse">
<stop stop-color="#80B641"/>
<stop offset="1" stop-color="#84B941"/>
</linearGradient>
<linearGradient id="paint32_linear_684_90894" x1="30.5132" y1="15.3075" x2="10.8166" y2="24.8218" gradientUnits="userSpaceOnUse">
<stop stop-color="#DF5E26"/>
<stop offset="1" stop-color="#CC7E29"/>
</linearGradient>
<linearGradient id="paint33_linear_684_90894" x1="30.5134" y1="15.3075" x2="10.8168" y2="24.8218" gradientUnits="userSpaceOnUse">
<stop stop-color="#DF5E26"/>
<stop offset="1" stop-color="#CC7E29"/>
</linearGradient>
<linearGradient id="paint34_linear_684_90894" x1="35.2081" y1="18.3469" x2="18.7961" y2="22.3042" gradientUnits="userSpaceOnUse">
<stop stop-color="#52A346"/>
<stop offset="1" stop-color="#9B9334"/>
</linearGradient>
<linearGradient id="paint35_linear_684_90894" x1="35.208" y1="18.3469" x2="18.796" y2="22.3042" gradientUnits="userSpaceOnUse">
<stop stop-color="#52A346"/>
<stop offset="1" stop-color="#9B9334"/>
</linearGradient>
<linearGradient id="paint36_linear_684_90894" x1="34.6509" y1="27.502" x2="22.4356" y2="34.0093" gradientUnits="userSpaceOnUse">
<stop stop-color="#009781"/>
<stop offset="1" stop-color="#0168A5"/>
</linearGradient>
<linearGradient id="paint37_linear_684_90894" x1="34.6509" y1="27.502" x2="22.4356" y2="34.0093" gradientUnits="userSpaceOnUse">
<stop stop-color="#009781"/>
<stop offset="1" stop-color="#0168A5"/>
</linearGradient>
<linearGradient id="paint38_linear_684_90894" x1="29.3681" y1="31.555" x2="22.1893" y2="38.0009" gradientUnits="userSpaceOnUse">
<stop stop-color="#263E81"/>
<stop offset="1" stop-color="#0F63A5"/>
</linearGradient>
<linearGradient id="paint39_linear_684_90894" x1="29.3681" y1="31.555" x2="22.1893" y2="38.0009" gradientUnits="userSpaceOnUse">
<stop stop-color="#263E81"/>
<stop offset="1" stop-color="#0F63A5"/>
</linearGradient>
<linearGradient id="paint40_linear_684_90894" x1="35.3129" y1="32.1255" x2="25.8275" y2="36.9894" gradientUnits="userSpaceOnUse">
<stop stop-color="#1B81BB"/>
<stop offset="1" stop-color="#0574B1"/>
</linearGradient>
<linearGradient id="paint41_linear_684_90894" x1="35.3129" y1="32.1255" x2="25.8275" y2="36.9894" gradientUnits="userSpaceOnUse">
<stop stop-color="#1B81BB"/>
<stop offset="1" stop-color="#0574B1"/>
</linearGradient>
<linearGradient id="paint42_linear_684_90894" x1="32.803" y1="32.6271" x2="23.8844" y2="36.2062" gradientUnits="userSpaceOnUse">
<stop stop-color="#005C9E"/>
<stop offset="1" stop-color="#0B6EAC"/>
</linearGradient>
<linearGradient id="paint43_linear_684_90894" x1="32.803" y1="32.6272" x2="23.8844" y2="36.2063" gradientUnits="userSpaceOnUse">
<stop stop-color="#005C9E"/>
<stop offset="1" stop-color="#0B6EAC"/>
</linearGradient>
<linearGradient id="paint44_linear_684_90894" x1="41.8" y1="21.5889" x2="32.0945" y2="26.3902" gradientUnits="userSpaceOnUse">
<stop stop-color="#42A347"/>
<stop offset="1" stop-color="#119146"/>
</linearGradient>
<linearGradient id="paint45_linear_684_90894" x1="41.8" y1="21.5889" x2="32.0945" y2="26.3902" gradientUnits="userSpaceOnUse">
<stop stop-color="#42A347"/>
<stop offset="1" stop-color="#119146"/>
</linearGradient>
<linearGradient id="paint46_linear_684_90894" x1="37.6253" y1="21.8142" x2="31.4713" y2="22.2769" gradientUnits="userSpaceOnUse">
<stop stop-color="#4EA346"/>
<stop offset="1" stop-color="#099547"/>
</linearGradient>
<linearGradient id="paint47_linear_684_90894" x1="37.6253" y1="21.8142" x2="31.4713" y2="22.2769" gradientUnits="userSpaceOnUse">
<stop stop-color="#4EA346"/>
<stop offset="1" stop-color="#099547"/>
</linearGradient>
<linearGradient id="paint48_linear_684_90894" x1="36.0181" y1="23.9365" x2="29.6466" y2="23.9331" gradientUnits="userSpaceOnUse">
<stop stop-color="#119146"/>
<stop offset="1" stop-color="#0F8A79"/>
</linearGradient>
<linearGradient id="paint49_linear_684_90894" x1="36.0181" y1="23.9365" x2="29.6466" y2="23.9331" gradientUnits="userSpaceOnUse">
<stop stop-color="#119146"/>
<stop offset="1" stop-color="#0F8A79"/>
</linearGradient>
<linearGradient id="paint50_linear_684_90894" x1="40.7678" y1="26.5994" x2="35.0118" y2="30.0775" gradientUnits="userSpaceOnUse">
<stop stop-color="#068F47"/>
<stop offset="1" stop-color="#0A8D47"/>
</linearGradient>
<linearGradient id="paint51_linear_684_90894" x1="40.753" y1="26.6399" x2="35.0029" y2="30.0768" gradientUnits="userSpaceOnUse">
<stop stop-color="#068F47"/>
<stop offset="1" stop-color="#0A8D47"/>
</linearGradient>
<linearGradient id="paint52_linear_684_90894" x1="36.7152" y1="28.4964" x2="29.1483" y2="31.0407" gradientUnits="userSpaceOnUse">
<stop stop-color="#099180"/>
<stop offset="1" stop-color="#1B889C"/>
</linearGradient>
<linearGradient id="paint53_linear_684_90894" x1="36.7152" y1="28.4964" x2="29.1483" y2="31.0407" gradientUnits="userSpaceOnUse">
<stop stop-color="#099180"/>
<stop offset="1" stop-color="#1B889C"/>
</linearGradient>
<linearGradient id="paint54_linear_684_90894" x1="38.9842" y1="30.8742" x2="30.4623" y2="35.9945" gradientUnits="userSpaceOnUse">
<stop stop-color="#1F80BF"/>
<stop offset="1" stop-color="#0F8AA6"/>
</linearGradient>
<linearGradient id="paint55_linear_684_90894" x1="38.9843" y1="30.8742" x2="30.4624" y2="35.9945" gradientUnits="userSpaceOnUse">
<stop stop-color="#1F80BF"/>
<stop offset="1" stop-color="#0F8AA6"/>
</linearGradient>
<linearGradient id="paint56_linear_684_90894" x1="18.0665" y1="25.8703" x2="3.43477" y2="37.1426" gradientUnits="userSpaceOnUse">
<stop stop-color="#B52281"/>
<stop offset="1" stop-color="#DA207C"/>
</linearGradient>
<linearGradient id="paint57_linear_684_90894" x1="18.0665" y1="25.8703" x2="3.43477" y2="37.1426" gradientUnits="userSpaceOnUse">
<stop stop-color="#B52281"/>
<stop offset="1" stop-color="#DA207C"/>
</linearGradient>
<linearGradient id="paint58_linear_684_90894" x1="20.6078" y1="29.1685" x2="5.97615" y2="40.4409" gradientUnits="userSpaceOnUse">
<stop stop-color="#B52281"/>
<stop offset="1" stop-color="#DA207C"/>
</linearGradient>
<linearGradient id="paint59_linear_684_90894" x1="20.6078" y1="29.1685" x2="5.97615" y2="40.4409" gradientUnits="userSpaceOnUse">
<stop stop-color="#B52281"/>
<stop offset="1" stop-color="#DA207C"/>
</linearGradient>
<linearGradient id="paint60_linear_684_90894" x1="22.9062" y1="30.8213" x2="8.51641" y2="38.5904" gradientUnits="userSpaceOnUse">
<stop stop-color="#7F297B"/>
<stop offset="1" stop-color="#852C80"/>
</linearGradient>
<linearGradient id="paint61_linear_684_90894" x1="22.9062" y1="30.8213" x2="8.51641" y2="38.5904" gradientUnits="userSpaceOnUse">
<stop stop-color="#7F297B"/>
<stop offset="1" stop-color="#852C80"/>
</linearGradient>
<linearGradient id="paint62_linear_684_90894" x1="56.7487" y1="16.4021" x2="44.0716" y2="17.4311" gradientUnits="userSpaceOnUse">
<stop stop-color="#199749"/>
<stop offset="1" stop-color="#149B49"/>
</linearGradient>
<linearGradient id="paint63_linear_684_90894" x1="56.7487" y1="16.4021" x2="44.0716" y2="17.4311" gradientUnits="userSpaceOnUse">
<stop stop-color="#199749"/>
<stop offset="1" stop-color="#149B49"/>
</linearGradient>
<linearGradient id="paint64_linear_684_90894" x1="35.6236" y1="44.027" x2="32.2553" y2="49.3134" gradientUnits="userSpaceOnUse">
<stop stop-color="#0E4F87"/>
<stop offset="1" stop-color="#1E4682"/>
</linearGradient>
<linearGradient id="paint65_linear_684_90894" x1="35.6236" y1="44.027" x2="32.2899" y2="49.2778" gradientUnits="userSpaceOnUse">
<stop stop-color="#0E4F87"/>
<stop offset="1" stop-color="#1E4682"/>
</linearGradient>
<linearGradient id="paint66_linear_684_90894" x1="6.51161" y1="38.9846" x2="28.561" y2="45.5233" gradientUnits="userSpaceOnUse">
<stop stop-color="#742A80"/>
<stop offset="1" stop-color="#2E357D"/>
</linearGradient>
<linearGradient id="paint67_linear_684_90894" x1="6.51473" y1="38.9871" x2="28.561" y2="45.5233" gradientUnits="userSpaceOnUse">
<stop stop-color="#742A80"/>
<stop offset="1" stop-color="#2E357D"/>
</linearGradient>
<linearGradient id="paint68_linear_684_90894" x1="22.4151" y1="37.6238" x2="6.09961" y2="37.972" gradientUnits="userSpaceOnUse">
<stop stop-color="#542F79"/>
<stop offset="1" stop-color="#3D2D7B"/>
</linearGradient>
<linearGradient id="paint69_linear_684_90894" x1="22.4142" y1="37.6238" x2="6.09873" y2="37.9721" gradientUnits="userSpaceOnUse">
<stop stop-color="#542F79"/>
<stop offset="1" stop-color="#3D2D7B"/>
</linearGradient>
<linearGradient id="paint70_linear_684_90894" x1="53.6798" y1="15.1422" x2="35.2207" y2="21.9388" gradientUnits="userSpaceOnUse">
<stop stop-color="#5EAB46"/>
<stop offset="1" stop-color="#54A245"/>
</linearGradient>
<linearGradient id="paint71_linear_684_90894" x1="53.6797" y1="15.1422" x2="35.2808" y2="21.8342" gradientUnits="userSpaceOnUse">
<stop stop-color="#5EAB46"/>
<stop offset="1" stop-color="#54A245"/>
</linearGradient>
<linearGradient id="paint72_linear_684_90894" x1="51.0526" y1="22.891" x2="36.7194" y2="27.8236" gradientUnits="userSpaceOnUse">
<stop stop-color="#69AA44"/>
<stop offset="1" stop-color="#54A245"/>
</linearGradient>
<linearGradient id="paint73_linear_684_90894" x1="51.0526" y1="22.891" x2="36.7701" y2="27.7436" gradientUnits="userSpaceOnUse">
<stop stop-color="#69AA44"/>
<stop offset="1" stop-color="#54A245"/>
</linearGradient>
<linearGradient id="paint74_linear_684_90894" x1="39.1514" y1="0.705285" x2="29.8445" y2="9.35804" gradientUnits="userSpaceOnUse">
<stop stop-color="#F3CF1A"/>
<stop offset="1" stop-color="#E9A824"/>
</linearGradient>
<linearGradient id="paint75_linear_684_90894" x1="39.1514" y1="0.705285" x2="29.8445" y2="9.35804" gradientUnits="userSpaceOnUse">
<stop stop-color="#F3CF1A"/>
<stop offset="1" stop-color="#E9A824"/>
</linearGradient>
<linearGradient id="paint76_linear_684_90894" x1="18.3938" y1="38.6715" x2="-1.24055" y2="41.0716" gradientUnits="userSpaceOnUse">
<stop stop-color="#512C7C"/>
<stop offset="1" stop-color="#7D2B7F"/>
</linearGradient>
<linearGradient id="paint77_linear_684_90894" x1="18.3937" y1="38.6715" x2="-1.24064" y2="41.0716" gradientUnits="userSpaceOnUse">
<stop stop-color="#512C7C"/>
<stop offset="1" stop-color="#7D2B7F"/>
</linearGradient>
<linearGradient id="paint78_linear_684_90894" x1="52.8075" y1="25.8593" x2="43.1949" y2="29.6516" gradientUnits="userSpaceOnUse">
<stop stop-color="#099146"/>
<stop offset="1" stop-color="#068F47"/>
</linearGradient>
<linearGradient id="paint79_linear_684_90894" x1="52.8075" y1="25.8593" x2="43.1949" y2="29.6516" gradientUnits="userSpaceOnUse">
<stop stop-color="#099146"/>
<stop offset="1" stop-color="#068F47"/>
</linearGradient>
<linearGradient id="paint80_linear_684_90894" x1="18.2132" y1="-0.530252" x2="9.72987" y2="-0.346878" gradientUnits="userSpaceOnUse">
<stop stop-color="#DF5E26"/>
<stop offset="1" stop-color="#DD472A"/>
</linearGradient>
<linearGradient id="paint81_linear_684_90894" x1="18.2132" y1="-0.530252" x2="9.72987" y2="-0.346878" gradientUnits="userSpaceOnUse">
<stop stop-color="#DF5E26"/>
<stop offset="1" stop-color="#DD472A"/>
</linearGradient>
<linearGradient id="paint82_linear_684_90894" x1="43.178" y1="4.49416" x2="33.7415" y2="12.6141" gradientUnits="userSpaceOnUse">
<stop stop-color="#F2DE0A"/>
<stop offset="1" stop-color="#F7CF1A"/>
</linearGradient>
<linearGradient id="paint83_linear_684_90894" x1="43.1788" y1="4.49417" x2="33.7424" y2="12.6141" gradientUnits="userSpaceOnUse">
<stop stop-color="#F2DE0A"/>
<stop offset="1" stop-color="#F7CF1A"/>
</linearGradient>
<linearGradient id="paint84_linear_684_90894" x1="46.7029" y1="3.40188" x2="37.4618" y2="8.14073" gradientUnits="userSpaceOnUse">
<stop stop-color="#E6DB1E"/>
<stop offset="1" stop-color="#D6D226"/>
</linearGradient>
<linearGradient id="paint85_linear_684_90894" x1="46.7029" y1="3.40188" x2="37.4618" y2="8.14073" gradientUnits="userSpaceOnUse">
<stop stop-color="#E6DB1E"/>
<stop offset="1" stop-color="#D6D226"/>
</linearGradient>
<linearGradient id="paint86_linear_684_90894" x1="45.9455" y1="7.60534" x2="36.4722" y2="11.0278" gradientUnits="userSpaceOnUse">
<stop stop-color="#D4CF27"/>
<stop offset="1" stop-color="#B8C833"/>
</linearGradient>
<linearGradient id="paint87_linear_684_90894" x1="45.9455" y1="7.60534" x2="36.4722" y2="11.0278" gradientUnits="userSpaceOnUse">
<stop stop-color="#D4CF27"/>
<stop offset="1" stop-color="#B8C833"/>
</linearGradient>
<linearGradient id="paint88_linear_684_90894" x1="54.8838" y1="10.6189" x2="44.4865" y2="18.8528" gradientUnits="userSpaceOnUse">
<stop stop-color="#81B841"/>
<stop offset="1" stop-color="#ABC338"/>
</linearGradient>
<linearGradient id="paint89_linear_684_90894" x1="54.8838" y1="10.6189" x2="44.4865" y2="18.8528" gradientUnits="userSpaceOnUse">
<stop stop-color="#81B841"/>
<stop offset="1" stop-color="#ABC338"/>
</linearGradient>
<linearGradient id="paint90_linear_684_90894" x1="20.9646" y1="10.323" x2="1.61608" y2="21.1592" gradientUnits="userSpaceOnUse">
<stop stop-color="#DF2C34"/>
<stop offset="1" stop-color="#CF1E53"/>
</linearGradient>
<linearGradient id="paint91_linear_684_90894" x1="20.9646" y1="10.323" x2="1.61608" y2="21.1592" gradientUnits="userSpaceOnUse">
<stop stop-color="#DF2C34"/>
<stop offset="1" stop-color="#CF1E53"/>
</linearGradient>
<linearGradient id="paint92_linear_684_90894" x1="6.60214" y1="14.1751" x2="-2.47283" y2="14.5089" gradientUnits="userSpaceOnUse">
<stop stop-color="#DF2B63"/>
<stop offset="1" stop-color="#DF2C5D"/>
</linearGradient>
<linearGradient id="paint93_linear_684_90894" x1="6.60184" y1="14.1751" x2="-2.47314" y2="14.5089" gradientUnits="userSpaceOnUse">
<stop stop-color="#DF2B63"/>
<stop offset="1" stop-color="#DF2C5D"/>
</linearGradient>
<linearGradient id="paint94_linear_684_90894" x1="20.631" y1="18.8488" x2="4.54504" y2="32.4282" gradientUnits="userSpaceOnUse">
<stop stop-color="#B02474"/>
<stop offset="1" stop-color="#DF2B62"/>
</linearGradient>
<linearGradient id="paint95_linear_684_90894" x1="20.631" y1="18.8488" x2="4.54504" y2="32.4282" gradientUnits="userSpaceOnUse">
<stop stop-color="#B02474"/>
<stop offset="1" stop-color="#DF2B62"/>
</linearGradient>
<linearGradient id="paint96_linear_684_90894" x1="12.1288" y1="10.6827" x2="5.62278" y2="14.1416" gradientUnits="userSpaceOnUse">
<stop stop-color="#DB322B"/>
<stop offset="1" stop-color="#DE293E"/>
</linearGradient>
<linearGradient id="paint97_linear_684_90894" x1="12.1288" y1="10.6827" x2="5.62278" y2="14.1416" gradientUnits="userSpaceOnUse">
<stop stop-color="#DB322B"/>
<stop offset="1" stop-color="#DE293E"/>
</linearGradient>
<linearGradient id="paint98_linear_684_90894" x1="12.9988" y1="9.60355" x2="10.4332" y2="12.7197" gradientUnits="userSpaceOnUse">
<stop stop-color="#DD312E"/>
<stop offset="1" stop-color="#DC352B"/>
</linearGradient>
<linearGradient id="paint99_linear_684_90894" x1="12.9988" y1="9.60355" x2="10.4332" y2="12.7197" gradientUnits="userSpaceOnUse">
<stop stop-color="#DD312E"/>
<stop offset="1" stop-color="#DC352B"/>
</linearGradient>
<linearGradient id="paint100_linear_684_90894" x1="25.7191" y1="-2.54586" x2="13.6907" y2="2.59836" gradientUnits="userSpaceOnUse">
<stop stop-color="#E17C27"/>
<stop offset="1" stop-color="#E27F26"/>
</linearGradient>
<linearGradient id="paint101_linear_684_90894" x1="25.7191" y1="-2.54586" x2="13.6907" y2="2.59836" gradientUnits="userSpaceOnUse">
<stop stop-color="#E17C27"/>
<stop offset="1" stop-color="#E27F26"/>
</linearGradient>
<linearGradient id="paint102_linear_684_90894" x1="23.5855" y1="-0.149073" x2="16.4518" y2="5.61272" gradientUnits="userSpaceOnUse">
<stop stop-color="#E27927"/>
<stop offset="1" stop-color="#E17C27"/>
</linearGradient>
<linearGradient id="paint103_linear_684_90894" x1="23.5855" y1="-0.149073" x2="16.4518" y2="5.61272" gradientUnits="userSpaceOnUse">
<stop stop-color="#E27927"/>
<stop offset="1" stop-color="#E17C27"/>
</linearGradient>
<linearGradient id="paint104_linear_684_90894" x1="21.0586" y1="-1.30066" x2="11.4207" y2="3.25755" gradientUnits="userSpaceOnUse">
<stop stop-color="#DF6026"/>
<stop offset="1" stop-color="#DC5826"/>
</linearGradient>
<linearGradient id="paint105_linear_684_90894" x1="21.0588" y1="-1.30066" x2="11.4209" y2="3.25755" gradientUnits="userSpaceOnUse">
<stop stop-color="#DF6026"/>
<stop offset="1" stop-color="#DC5826"/>
</linearGradient>
<linearGradient id="paint106_linear_684_90894" x1="16.0594" y1="1.41242" x2="7.88109" y2="2.18511" gradientUnits="userSpaceOnUse">
<stop stop-color="#DD472A"/>
<stop offset="1" stop-color="#E23E2E"/>
</linearGradient>
<linearGradient id="paint107_linear_684_90894" x1="16.0594" y1="1.41241" x2="7.88109" y2="2.18509" gradientUnits="userSpaceOnUse">
<stop stop-color="#DD472A"/>
<stop offset="1" stop-color="#E23E2E"/>
</linearGradient>
<linearGradient id="paint108_linear_684_90894" x1="13.1327" y1="4.22744" x2="3.75249" y2="9.25123" gradientUnits="userSpaceOnUse">
<stop stop-color="#DC3829"/>
<stop offset="1" stop-color="#DC3829"/>
</linearGradient>
<linearGradient id="paint109_linear_684_90894" x1="13.0716" y1="4.20434" x2="3.75382" y2="9.24241" gradientUnits="userSpaceOnUse">
<stop stop-color="#DC3829"/>
<stop offset="1" stop-color="#DC3829"/>
</linearGradient>
<linearGradient id="paint110_linear_684_90894" x1="14.6281" y1="5.74563" x2="6.85335" y2="9.51112" gradientUnits="userSpaceOnUse">
<stop stop-color="#DC3629"/>
<stop offset="1" stop-color="#E23D2D"/>
</linearGradient>
<linearGradient id="paint111_linear_684_90894" x1="14.6281" y1="5.74563" x2="6.85335" y2="9.51112" gradientUnits="userSpaceOnUse">
<stop stop-color="#DC3629"/>
<stop offset="1" stop-color="#E23D2D"/>
</linearGradient>
<linearGradient id="paint112_linear_684_90894" x1="24.9122" y1="2.03696" x2="20.2919" y2="6.70133" gradientUnits="userSpaceOnUse">
<stop stop-color="#E27927"/>
<stop offset="1" stop-color="#E17C27"/>
</linearGradient>
<linearGradient id="paint113_linear_684_90894" x1="24.9122" y1="2.03696" x2="20.2919" y2="6.70133" gradientUnits="userSpaceOnUse">
<stop stop-color="#E27927"/>
<stop offset="1" stop-color="#E17C27"/>
</linearGradient>
<linearGradient id="paint114_linear_684_90894" x1="20.6513" y1="1.42721" x2="13.415" y2="3.15555" gradientUnits="userSpaceOnUse">
<stop stop-color="#DF5E26"/>
<stop offset="1" stop-color="#DD472A"/>
</linearGradient>
<linearGradient id="paint115_linear_684_90894" x1="20.6511" y1="1.42721" x2="13.4148" y2="3.15555" gradientUnits="userSpaceOnUse">
<stop stop-color="#DF5E26"/>
<stop offset="1" stop-color="#DD472A"/>
</linearGradient>
<linearGradient id="paint116_linear_684_90894" x1="38.3551" y1="8.51785" x2="27.4534" y2="16.8079" gradientUnits="userSpaceOnUse">
<stop stop-color="#E7DC1C"/>
<stop offset="1" stop-color="#F0BF1C"/>
</linearGradient>
<linearGradient id="paint117_linear_684_90894" x1="38.3551" y1="8.51785" x2="27.4534" y2="16.8079" gradientUnits="userSpaceOnUse">
<stop stop-color="#E7DC1C"/>
<stop offset="1" stop-color="#F0BF1C"/>
</linearGradient>
<linearGradient id="paint118_linear_684_90894" x1="41.8096" y1="9.15368" x2="31.8467" y2="12.8354" gradientUnits="userSpaceOnUse">
<stop stop-color="#DAD725"/>
<stop offset="1" stop-color="#C0C830"/>
</linearGradient>
<linearGradient id="paint119_linear_684_90894" x1="41.8096" y1="9.15368" x2="31.8467" y2="12.8354" gradientUnits="userSpaceOnUse">
<stop stop-color="#DAD725"/>
<stop offset="1" stop-color="#C0C830"/>
</linearGradient>
<linearGradient id="paint120_linear_684_90894" x1="50.1497" y1="31.633" x2="38.1878" y2="35.9582" gradientUnits="userSpaceOnUse">
<stop stop-color="#01938E"/>
<stop offset="1" stop-color="#0292B6"/>
</linearGradient>
<linearGradient id="paint121_linear_684_90894" x1="50.1497" y1="31.633" x2="38.1878" y2="35.9582" gradientUnits="userSpaceOnUse">
<stop stop-color="#01938E"/>
<stop offset="1" stop-color="#0292B6"/>
</linearGradient>
<linearGradient id="paint122_linear_684_90894" x1="50.2373" y1="36.5472" x2="40.4783" y2="41.7354" gradientUnits="userSpaceOnUse">
<stop stop-color="#0795A6"/>
<stop offset="1" stop-color="#2286C7"/>
</linearGradient>
<linearGradient id="paint123_linear_684_90894" x1="50.2373" y1="36.5473" x2="40.4784" y2="41.7355" gradientUnits="userSpaceOnUse">
<stop stop-color="#0795A6"/>
<stop offset="1" stop-color="#2286C7"/>
</linearGradient>
<linearGradient id="paint124_linear_684_90894" x1="44.8364" y1="38.2863" x2="34.8439" y2="42.782" gradientUnits="userSpaceOnUse">
<stop stop-color="#1D82C2"/>
<stop offset="1" stop-color="#1D81BC"/>
</linearGradient>
<linearGradient id="paint125_linear_684_90894" x1="44.7563" y1="38.3236" x2="34.8444" y2="42.7831" gradientUnits="userSpaceOnUse">
<stop stop-color="#1D82C2"/>
<stop offset="1" stop-color="#1D81BC"/>
</linearGradient>
<linearGradient id="paint126_linear_684_90894" x1="45.1105" y1="41.1207" x2="34.677" y2="48.9731" gradientUnits="userSpaceOnUse">
<stop stop-color="#0C71AE"/>
<stop offset="1" stop-color="#1E7EB8"/>
</linearGradient>
<linearGradient id="paint127_linear_684_90894" x1="45.1104" y1="41.1207" x2="34.6769" y2="48.9731" gradientUnits="userSpaceOnUse">
<stop stop-color="#0C71AE"/>
<stop offset="1" stop-color="#1E7EB8"/>
</linearGradient>
<linearGradient id="paint128_linear_684_90894" x1="40.5213" y1="39.6309" x2="28.8717" y2="45.618" gradientUnits="userSpaceOnUse">
<stop stop-color="#1B81BB"/>
<stop offset="1" stop-color="#0574B1"/>
</linearGradient>
<linearGradient id="paint129_linear_684_90894" x1="40.5213" y1="39.6309" x2="28.8717" y2="45.618" gradientUnits="userSpaceOnUse">
<stop stop-color="#1B81BB"/>
<stop offset="1" stop-color="#0574B1"/>
</linearGradient>
<linearGradient id="paint130_linear_684_90894" x1="36.5453" y1="39.5005" x2="25.4862" y2="43.9386" gradientUnits="userSpaceOnUse">
<stop stop-color="#005C9E"/>
<stop offset="1" stop-color="#0B6EAC"/>
</linearGradient>
<linearGradient id="paint131_linear_684_90894" x1="36.5453" y1="39.5005" x2="25.4862" y2="43.9386" gradientUnits="userSpaceOnUse">
<stop stop-color="#005C9E"/>
<stop offset="1" stop-color="#0B6EAC"/>
</linearGradient>
<linearGradient id="paint132_linear_684_90894" x1="47.9466" y1="25.8337" x2="36.0088" y2="31.7392" gradientUnits="userSpaceOnUse">
<stop stop-color="#42A347"/>
<stop offset="1" stop-color="#119146"/>
</linearGradient>
<linearGradient id="paint133_linear_684_90894" x1="47.9466" y1="25.8337" x2="36.0088" y2="31.7392" gradientUnits="userSpaceOnUse">
<stop stop-color="#42A347"/>
<stop offset="1" stop-color="#119146"/>
</linearGradient>
<linearGradient id="paint134_linear_684_90894" x1="17.9603" y1="-0.72856" x2="8.26574" y2="4.21667" gradientUnits="userSpaceOnUse">
<stop stop-color="#DB5227"/>
<stop offset="1" stop-color="#DD472A"/>
</linearGradient>
<linearGradient id="paint135_linear_684_90894" x1="17.9603" y1="-0.728562" x2="8.26574" y2="4.21667" gradientUnits="userSpaceOnUse">
<stop stop-color="#DB5227"/>
<stop offset="1" stop-color="#DD472A"/>
</linearGradient>
<linearGradient id="paint136_linear_684_90894" x1="15.4443" y1="1.77955" x2="7.32465" y2="6.94318" gradientUnits="userSpaceOnUse">
<stop stop-color="#DD472A"/>
<stop offset="1" stop-color="#E33F2E"/>
</linearGradient>
<linearGradient id="paint137_linear_684_90894" x1="15.4452" y1="1.77955" x2="7.32553" y2="6.94318" gradientUnits="userSpaceOnUse">
<stop stop-color="#DD472A"/>
<stop offset="1" stop-color="#E33F2E"/>
</linearGradient>
<linearGradient id="paint138_linear_684_90894" x1="15.0685" y1="2.73599" x2="7.00699" y2="7.95011" gradientUnits="userSpaceOnUse">
<stop stop-color="#E23D2D"/>
<stop offset="1" stop-color="#E23E2E"/>
</linearGradient>
<linearGradient id="paint139_linear_684_90894" x1="15.0685" y1="2.73599" x2="7.00699" y2="7.95011" gradientUnits="userSpaceOnUse">
<stop stop-color="#E23D2D"/>
<stop offset="1" stop-color="#E23E2E"/>
</linearGradient>
<linearGradient id="paint140_linear_684_90894" x1="26.1369" y1="-4.39897" x2="16.6911" y2="-2.72034" gradientUnits="userSpaceOnUse">
<stop stop-color="#E17C27"/>
<stop offset="1" stop-color="#E27F26"/>
</linearGradient>
<linearGradient id="paint141_linear_684_90894" x1="26.137" y1="-4.39897" x2="16.6912" y2="-2.72034" gradientUnits="userSpaceOnUse">
<stop stop-color="#E17C27"/>
<stop offset="1" stop-color="#E27F26"/>
</linearGradient>
<linearGradient id="paint142_linear_684_90894" x1="28.9285" y1="-0.662589" x2="21.8078" y2="1.2409" gradientUnits="userSpaceOnUse">
<stop stop-color="#EE9924"/>
<stop offset="1" stop-color="#EC9423"/>
</linearGradient>
<linearGradient id="paint143_linear_684_90894" x1="28.9286" y1="-0.662589" x2="21.8079" y2="1.2409" gradientUnits="userSpaceOnUse">
<stop stop-color="#EE9924"/>
<stop offset="1" stop-color="#EC9423"/>
</linearGradient>
<linearGradient id="paint144_linear_684_90894" x1="26.107" y1="-0.293905" x2="18.1508" y2="2.67386" gradientUnits="userSpaceOnUse">
<stop stop-color="#E37D26"/>
<stop offset="1" stop-color="#E28227"/>
</linearGradient>
<linearGradient id="paint145_linear_684_90894" x1="26.107" y1="-0.293905" x2="18.1508" y2="2.67386" gradientUnits="userSpaceOnUse">
<stop stop-color="#E37D26"/>
<stop offset="1" stop-color="#E28227"/>
</linearGradient>
<linearGradient id="paint146_linear_684_90894" x1="29.2308" y1="-1.91836" x2="15.4581" y2="2.63204" gradientUnits="userSpaceOnUse">
<stop stop-color="#EC9E25"/>
<stop offset="1" stop-color="#E88924"/>
</linearGradient>
<linearGradient id="paint147_linear_684_90894" x1="29.2308" y1="-1.91836" x2="15.4581" y2="2.63204" gradientUnits="userSpaceOnUse">
<stop stop-color="#EC9E25"/>
<stop offset="1" stop-color="#E88924"/>
</linearGradient>
<linearGradient id="paint148_linear_684_90894" x1="45.979" y1="29.4386" x2="39.3106" y2="32.1696" gradientUnits="userSpaceOnUse">
<stop stop-color="#0A8D47"/>
<stop offset="1" stop-color="#0A8D47"/>
</linearGradient>
<linearGradient id="paint149_linear_684_90894" x1="45.979" y1="29.4386" x2="39.3106" y2="32.1696" gradientUnits="userSpaceOnUse">
<stop stop-color="#0A8D47"/>
<stop offset="1" stop-color="#0A8D47"/>
</linearGradient>
<linearGradient id="paint150_linear_684_90894" x1="45.1436" y1="28.7627" x2="38.071" y2="32.9901" gradientUnits="userSpaceOnUse">
<stop stop-color="#068F47"/>
<stop offset="1" stop-color="#0A8D47"/>
</linearGradient>
<linearGradient id="paint151_linear_684_90894" x1="45.1436" y1="28.7627" x2="38.071" y2="32.9901" gradientUnits="userSpaceOnUse">
<stop stop-color="#068F47"/>
<stop offset="1" stop-color="#0A8D47"/>
</linearGradient>
<linearGradient id="paint152_linear_684_90894" x1="44.5595" y1="31.8246" x2="35.8299" y2="32.7794" gradientUnits="userSpaceOnUse">
<stop stop-color="#01938E"/>
<stop offset="1" stop-color="#0D8FA9"/>
</linearGradient>
<linearGradient id="paint153_linear_684_90894" x1="44.5595" y1="31.8246" x2="35.8299" y2="32.7794" gradientUnits="userSpaceOnUse">
<stop stop-color="#01938E"/>
<stop offset="1" stop-color="#0D8FA9"/>
</linearGradient>
<linearGradient id="paint154_linear_684_90894" x1="43.8688" y1="35.5636" x2="33.4906" y2="41.7993" gradientUnits="userSpaceOnUse">
<stop stop-color="#1F80BF"/>
<stop offset="1" stop-color="#0F8AA6"/>
</linearGradient>
<linearGradient id="paint155_linear_684_90894" x1="43.8689" y1="35.5636" x2="33.4907" y2="41.7993" gradientUnits="userSpaceOnUse">
<stop stop-color="#1F80BF"/>
<stop offset="1" stop-color="#0F8AA6"/>
</linearGradient>
<linearGradient id="paint156_linear_684_90894" x1="17.6459" y1="28.0476" x2="-0.342417" y2="42.0089" gradientUnits="userSpaceOnUse">
<stop stop-color="#B52281"/>
<stop offset="1" stop-color="#DA207C"/>
</linearGradient>
<linearGradient id="paint157_linear_684_90894" x1="17.646" y1="28.0476" x2="-0.342324" y2="42.0089" gradientUnits="userSpaceOnUse">
<stop stop-color="#B52281"/>
<stop offset="1" stop-color="#DA207C"/>
</linearGradient>
<linearGradient id="paint158_linear_684_90894" x1="22.5816" y1="32.8014" x2="4.88214" y2="42.3573" gradientUnits="userSpaceOnUse">
<stop stop-color="#7F297B"/>
<stop offset="1" stop-color="#852C80"/>
</linearGradient>
<linearGradient id="paint159_linear_684_90894" x1="22.5816" y1="32.8014" x2="4.88214" y2="42.3573" gradientUnits="userSpaceOnUse">
<stop stop-color="#7F297B"/>
<stop offset="1" stop-color="#852C80"/>
</linearGradient>
<linearGradient id="paint160_linear_684_90894" x1="17.9065" y1="39.0444" x2="5.62487" y2="48.825" gradientUnits="userSpaceOnUse">
<stop stop-color="#6C2A7F"/>
<stop offset="1" stop-color="#B2227F"/>
</linearGradient>
<linearGradient id="paint161_linear_684_90894" x1="17.9064" y1="39.0445" x2="5.62477" y2="48.825" gradientUnits="userSpaceOnUse">
<stop stop-color="#6C2A7F"/>
<stop offset="1" stop-color="#B2227F"/>
</linearGradient>
<linearGradient id="paint162_linear_684_90894" x1="13.5851" y1="6.23086" x2="0.654372" y2="15.0969" gradientUnits="userSpaceOnUse">
<stop stop-color="#DB322B"/>
<stop offset="1" stop-color="#DE2C38"/>
</linearGradient>
<linearGradient id="paint163_linear_684_90894" x1="13.5851" y1="6.23086" x2="0.654371" y2="15.0969" gradientUnits="userSpaceOnUse">
<stop stop-color="#DB322B"/>
<stop offset="1" stop-color="#DE2C38"/>
</linearGradient>
<linearGradient id="paint164_linear_684_90894" x1="10.941" y1="9.68328" x2="8.44749" y2="13.9122" gradientUnits="userSpaceOnUse">
<stop stop-color="#DD312E"/>
<stop offset="1" stop-color="#DE293F"/>
</linearGradient>
<linearGradient id="paint165_linear_684_90894" x1="10.941" y1="9.68328" x2="8.44749" y2="13.9122" gradientUnits="userSpaceOnUse">
<stop stop-color="#DD312E"/>
<stop offset="1" stop-color="#DE293F"/>
</linearGradient>
<linearGradient id="paint166_linear_684_90894" x1="11.0615" y1="12.6149" x2="5.12509" y2="19.9661" gradientUnits="userSpaceOnUse">
<stop stop-color="#DE293E"/>
<stop offset="1" stop-color="#DE2942"/>
</linearGradient>
<linearGradient id="paint167_linear_684_90894" x1="11.0615" y1="12.6149" x2="5.12509" y2="19.9661" gradientUnits="userSpaceOnUse">
<stop stop-color="#DE293E"/>
<stop offset="1" stop-color="#DE2942"/>
</linearGradient>
<linearGradient id="paint168_linear_684_90894" x1="10.1047" y1="13.8139" x2="-5.62289" y2="23.5074" gradientUnits="userSpaceOnUse">
<stop stop-color="#DD284B"/>
<stop offset="1" stop-color="#DB2752"/>
</linearGradient>
<linearGradient id="paint169_linear_684_90894" x1="10.1047" y1="13.8139" x2="-5.62289" y2="23.5074" gradientUnits="userSpaceOnUse">
<stop stop-color="#DD284B"/>
<stop offset="1" stop-color="#DB2752"/>
</linearGradient>
<linearGradient id="paint170_linear_684_90894" x1="54.814" y1="26.7378" x2="43.6589" y2="31.5413" gradientUnits="userSpaceOnUse">
<stop stop-color="#119146"/>
<stop offset="1" stop-color="#0A8D47"/>
</linearGradient>
<linearGradient id="paint171_linear_684_90894" x1="54.814" y1="26.7378" x2="43.6589" y2="31.5413" gradientUnits="userSpaceOnUse">
<stop stop-color="#119146"/>
<stop offset="1" stop-color="#0A8D47"/>
</linearGradient>
<linearGradient id="paint172_linear_684_90894" x1="49.1338" y1="32.1596" x2="46.2292" y2="35.9946" gradientUnits="userSpaceOnUse">
<stop stop-color="#0A8D47"/>
<stop offset="1" stop-color="#018E57"/>
</linearGradient>
<linearGradient id="paint173_linear_684_90894" x1="49.0632" y1="32.1544" x2="46.205" y2="35.928" gradientUnits="userSpaceOnUse">
<stop stop-color="#0A8D47"/>
<stop offset="1" stop-color="#018E57"/>
</linearGradient>
<clipPath id="clip0_684_90894">
<rect width="154" height="45" fill="white"/>
</clipPath>
</defs>
</svg>
