<svg width="24" height="23" viewBox="0 0 24 23" fill="none" xmlns="http://www.w3.org/2000/svg">
<path d="M5.23725 4.62812C5.04253 4.58469 4.84495 4.54062 4.68013 4.51926C4.52377 4.499 4.22326 4.47061 3.92354 4.61864C3.57994 4.78835 3.33317 5.10629 3.25403 5.48126C3.185 5.80833 3.28707 6.0924 3.34551 6.23885C3.4071 6.39321 3.49882 6.57367 3.58921 6.75153L9.98897 19.3495C10.1013 19.5707 10.2091 19.7829 10.3093 19.9442C10.3941 20.0804 10.5851 20.3778 10.9364 20.5152C11.3205 20.6655 11.7541 20.6166 12.0951 20.3846C12.4069 20.1724 12.527 19.84 12.5793 19.6883C12.6411 19.5087 12.6989 19.2779 12.7592 19.0372L14.2003 13.2859L19.4142 10.4627C19.6323 10.3446 19.8416 10.2313 20.0002 10.1268C20.1342 10.0386 20.4264 9.83977 20.5546 9.485C20.6947 9.09708 20.6345 8.66499 20.3936 8.33018C20.1733 8.02399 19.8378 7.91268 19.6848 7.86443C19.5037 7.80731 19.2714 7.75558 19.0292 7.70164L5.23725 4.62812Z" fill="#121212" stroke="#F8F8F8" stroke-width="1.5" stroke-linecap="round" stroke-linejoin="round"/>
</svg>
