<svg width="1455" height="312" viewBox="0 0 1455 312" fill="none" xmlns="http://www.w3.org/2000/svg">
<g opacity="0.2">
<circle cx="15.75" cy="137.5" r="0.75" fill="#D9D9D9"/>
<circle opacity="0.5" cx="43.5869" cy="137.5" r="0.75" fill="#D9D9D9"/>
<circle cx="71.4229" cy="137.5" r="0.75" fill="#D9D9D9"/>
<circle cx="99.2598" cy="137.5" r="0.75" fill="#D9D9D9"/>
<circle cx="126.846" cy="137.5" r="0.5" fill="#D9D9D9"/>
<circle cx="154.433" cy="137.5" r="0.75" fill="#D9D9D9"/>
<circle opacity="0.5" cx="182.27" cy="137.5" r="0.75" fill="#D9D9D9"/>
<circle cx="209.605" cy="137.5" r="0.25" fill="#D9D9D9"/>
<circle opacity="0.5" cx="236.942" cy="137.5" r="0.75" fill="#D9D9D9"/>
<circle cx="264.779" cy="137.5" r="0.75" fill="#D9D9D9"/>
<circle cx="292.615" cy="137.5" r="0.75" fill="#D9D9D9"/>
<circle cx="320.452" cy="137.5" r="0.75" fill="#D9D9D9"/>
<circle cx="348.288" cy="137.5" r="0.75" fill="#D9D9D9"/>
<circle opacity="0.5" cx="376.125" cy="137.5" r="0.75" fill="#D9D9D9"/>
<circle cx="403.712" cy="137.5" r="0.5" fill="#D9D9D9"/>
<circle cx="431.298" cy="137.5" r="0.75" fill="#D9D9D9"/>
<circle cx="459.135" cy="137.5" r="0.75" fill="#D9D9D9"/>
<circle cx="486.721" cy="137.5" r="0.5" fill="#D9D9D9"/>
<circle cx="514.308" cy="137.5" r="0.75" fill="#D9D9D9"/>
<circle cx="541.645" cy="137.5" r="0.25" fill="#D9D9D9"/>
<circle cx="568.98" cy="137.5" r="0.75" fill="#D9D9D9"/>
<circle opacity="0.5" cx="596.817" cy="137.5" r="0.75" fill="#D9D9D9"/>
<circle cx="624.654" cy="137.5" r="0.75" fill="#D9D9D9"/>
<circle cx="651.99" cy="137.5" r="0.25" fill="#D9D9D9"/>
<circle cx="679.077" cy="137.5" r="0.5" fill="#D9D9D9"/>
<circle cx="706.664" cy="137.5" r="0.75" fill="#D9D9D9"/>
<circle cx="734.5" cy="137.5" r="0.75" fill="#D9D9D9"/>
<circle cx="762.337" cy="137.5" r="0.75" fill="#D9D9D9"/>
<circle opacity="0.5" cx="790.173" cy="137.5" r="0.75" fill="#D9D9D9"/>
<circle cx="818.01" cy="137.5" r="0.75" fill="#D9D9D9"/>
<circle cx="845.346" cy="137.5" r="0.25" fill="#D9D9D9"/>
<circle cx="872.683" cy="137.5" r="0.75" fill="#D9D9D9"/>
<circle cx="900.52" cy="137.5" r="0.75" fill="#D9D9D9"/>
<circle cx="928.106" cy="137.5" r="0.5" fill="#D9D9D9"/>
<circle cx="955.692" cy="137.5" r="0.75" fill="#D9D9D9"/>
<circle cx="983.529" cy="137.5" r="0.75" fill="#D9D9D9"/>
<circle cx="1011.37" cy="137.5" r="0.75" fill="#D9D9D9"/>
<circle cx="1039.2" cy="137.5" r="0.75" fill="#D9D9D9"/>
<circle cx="1067.04" cy="137.5" r="0.75" fill="#D9D9D9"/>
<circle cx="1094.38" cy="137.5" r="0.25" fill="#D9D9D9"/>
<circle cx="1121.46" cy="137.5" r="0.5" fill="#D9D9D9"/>
<circle cx="1149.05" cy="137.5" r="0.75" fill="#D9D9D9"/>
<circle cx="1176.88" cy="137.5" r="0.75" fill="#D9D9D9"/>
<circle cx="1204.72" cy="137.5" r="0.75" fill="#D9D9D9"/>
<circle cx="1232.56" cy="137.5" r="0.75" fill="#D9D9D9"/>
<circle cx="1260.39" cy="137.5" r="0.75" fill="#D9D9D9"/>
<circle cx="1287.73" cy="137.5" r="0.25" fill="#D9D9D9"/>
<circle cx="1315.07" cy="137.5" r="0.75" fill="#D9D9D9"/>
<circle cx="1342.9" cy="137.5" r="0.75" fill="#D9D9D9"/>
<circle cx="1370.74" cy="137.5" r="0.75" fill="#D9D9D9"/>
<circle cx="1398.58" cy="137.5" r="0.75" fill="#D9D9D9"/>
<circle cx="1426.41" cy="137.5" r="0.75" fill="#D9D9D9"/>
<circle cx="1454.25" cy="137.5" r="0.75" fill="#D9D9D9"/>
</g>
<g opacity="0.2">
<circle cx="15.75" cy="203.5" r="0.75" fill="#D9D9D9"/>
<circle opacity="0.5" cx="43.5869" cy="203.5" r="0.75" fill="#D9D9D9"/>
<circle cx="71.4229" cy="203.5" r="0.75" fill="#D9D9D9"/>
<circle cx="99.2598" cy="203.5" r="0.75" fill="#D9D9D9"/>
<circle cx="126.846" cy="203.5" r="0.5" fill="#D9D9D9"/>
<circle cx="154.433" cy="203.5" r="0.75" fill="#D9D9D9"/>
<circle opacity="0.5" cx="182.27" cy="203.5" r="0.75" fill="#D9D9D9"/>
<circle cx="209.605" cy="203.5" r="0.25" fill="#D9D9D9"/>
<circle opacity="0.5" cx="236.942" cy="203.5" r="0.75" fill="#D9D9D9"/>
<circle cx="264.779" cy="203.5" r="0.75" fill="#D9D9D9"/>
<circle cx="292.615" cy="203.5" r="0.75" fill="#D9D9D9"/>
<circle cx="320.452" cy="203.5" r="0.75" fill="#D9D9D9"/>
<circle cx="348.288" cy="203.5" r="0.75" fill="#D9D9D9"/>
<circle opacity="0.5" cx="376.125" cy="203.5" r="0.75" fill="#D9D9D9"/>
<circle cx="403.712" cy="203.5" r="0.5" fill="#D9D9D9"/>
<circle cx="431.298" cy="203.5" r="0.75" fill="#D9D9D9"/>
<circle cx="459.135" cy="203.5" r="0.75" fill="#D9D9D9"/>
<circle cx="486.721" cy="203.5" r="0.5" fill="#D9D9D9"/>
<circle cx="514.308" cy="203.5" r="0.75" fill="#D9D9D9"/>
<circle cx="541.645" cy="203.5" r="0.25" fill="#D9D9D9"/>
<circle cx="568.98" cy="203.5" r="0.75" fill="#D9D9D9"/>
<circle opacity="0.5" cx="596.817" cy="203.5" r="0.75" fill="#D9D9D9"/>
<circle cx="624.654" cy="203.5" r="0.75" fill="#D9D9D9"/>
<circle cx="651.99" cy="203.5" r="0.25" fill="#D9D9D9"/>
<circle cx="679.077" cy="203.5" r="0.5" fill="#D9D9D9"/>
<circle cx="706.664" cy="203.5" r="0.75" fill="#D9D9D9"/>
<circle cx="734.5" cy="203.5" r="0.75" fill="#D9D9D9"/>
<circle cx="762.337" cy="203.5" r="0.75" fill="#D9D9D9"/>
<circle opacity="0.5" cx="790.173" cy="203.5" r="0.75" fill="#D9D9D9"/>
<circle cx="818.01" cy="203.5" r="0.75" fill="#D9D9D9"/>
<circle cx="845.346" cy="203.5" r="0.25" fill="#D9D9D9"/>
<circle cx="872.683" cy="203.5" r="0.75" fill="#D9D9D9"/>
<circle cx="900.52" cy="203.5" r="0.75" fill="#D9D9D9"/>
<circle cx="928.106" cy="203.5" r="0.5" fill="#D9D9D9"/>
<circle cx="955.692" cy="203.5" r="0.75" fill="#D9D9D9"/>
<circle cx="983.529" cy="203.5" r="0.75" fill="#D9D9D9"/>
<circle cx="1011.37" cy="203.5" r="0.75" fill="#D9D9D9"/>
<circle cx="1039.2" cy="203.5" r="0.75" fill="#D9D9D9"/>
<circle cx="1067.04" cy="203.5" r="0.75" fill="#D9D9D9"/>
<circle cx="1094.38" cy="203.5" r="0.25" fill="#D9D9D9"/>
<circle cx="1121.46" cy="203.5" r="0.5" fill="#D9D9D9"/>
<circle cx="1149.05" cy="203.5" r="0.75" fill="#D9D9D9"/>
<circle cx="1176.88" cy="203.5" r="0.75" fill="#D9D9D9"/>
<circle cx="1204.72" cy="203.5" r="0.75" fill="#D9D9D9"/>
<circle cx="1232.56" cy="203.5" r="0.75" fill="#D9D9D9"/>
<circle cx="1260.39" cy="203.5" r="0.75" fill="#D9D9D9"/>
<circle cx="1287.73" cy="203.5" r="0.25" fill="#D9D9D9"/>
<circle cx="1315.07" cy="203.5" r="0.75" fill="#D9D9D9"/>
<circle cx="1342.9" cy="203.5" r="0.75" fill="#D9D9D9"/>
<circle cx="1370.74" cy="203.5" r="0.75" fill="#D9D9D9"/>
<circle cx="1398.58" cy="203.5" r="0.75" fill="#D9D9D9"/>
<circle cx="1426.41" cy="203.5" r="0.75" fill="#D9D9D9"/>
<circle cx="1454.25" cy="203.5" r="0.75" fill="#D9D9D9"/>
</g>
<g opacity="0.1">
<circle cx="0.75" cy="108.5" r="0.75" fill="#D9D9D9"/>
<circle opacity="0.5" cx="28.5869" cy="108.5" r="0.75" fill="#D9D9D9"/>
<circle cx="56.4229" cy="108.5" r="0.75" fill="#D9D9D9"/>
<circle cx="84.2598" cy="108.5" r="0.75" fill="#D9D9D9"/>
<circle cx="111.846" cy="108.5" r="0.5" fill="#D9D9D9"/>
<circle cx="139.433" cy="108.5" r="0.75" fill="#D9D9D9"/>
<circle opacity="0.5" cx="167.27" cy="108.5" r="0.75" fill="#D9D9D9"/>
<circle cx="194.605" cy="108.5" r="0.25" fill="#D9D9D9"/>
<circle opacity="0.5" cx="221.942" cy="108.5" r="0.75" fill="#D9D9D9"/>
<circle cx="249.779" cy="108.5" r="0.75" fill="#D9D9D9"/>
<circle cx="277.615" cy="108.5" r="0.75" fill="#D9D9D9"/>
<circle cx="305.452" cy="108.5" r="0.75" fill="#D9D9D9"/>
<circle cx="333.288" cy="108.5" r="0.75" fill="#D9D9D9"/>
<circle opacity="0.5" cx="361.125" cy="108.5" r="0.75" fill="#D9D9D9"/>
<circle cx="388.712" cy="108.5" r="0.5" fill="#D9D9D9"/>
<circle cx="416.298" cy="108.5" r="0.75" fill="#D9D9D9"/>
<circle cx="444.135" cy="108.5" r="0.75" fill="#D9D9D9"/>
<circle cx="471.721" cy="108.5" r="0.5" fill="#D9D9D9"/>
<circle cx="499.308" cy="108.5" r="0.75" fill="#D9D9D9"/>
<circle cx="526.645" cy="108.5" r="0.25" fill="#D9D9D9"/>
<circle cx="553.98" cy="108.5" r="0.75" fill="#D9D9D9"/>
<circle opacity="0.5" cx="581.817" cy="108.5" r="0.75" fill="#D9D9D9"/>
<circle cx="609.654" cy="108.5" r="0.75" fill="#D9D9D9"/>
<circle cx="636.99" cy="108.5" r="0.25" fill="#D9D9D9"/>
<circle cx="664.077" cy="108.5" r="0.5" fill="#D9D9D9"/>
<circle cx="691.664" cy="108.5" r="0.75" fill="#D9D9D9"/>
<circle cx="719.5" cy="108.5" r="0.75" fill="#D9D9D9"/>
<circle cx="747.337" cy="108.5" r="0.75" fill="#D9D9D9"/>
<circle opacity="0.5" cx="775.173" cy="108.5" r="0.75" fill="#D9D9D9"/>
<circle cx="803.01" cy="108.5" r="0.75" fill="#D9D9D9"/>
<circle cx="830.346" cy="108.5" r="0.25" fill="#D9D9D9"/>
<circle cx="857.683" cy="108.5" r="0.75" fill="#D9D9D9"/>
<circle cx="885.52" cy="108.5" r="0.75" fill="#D9D9D9"/>
<circle cx="913.106" cy="108.5" r="0.5" fill="#D9D9D9"/>
<circle cx="940.692" cy="108.5" r="0.75" fill="#D9D9D9"/>
<circle cx="968.529" cy="108.5" r="0.75" fill="#D9D9D9"/>
<circle cx="996.366" cy="108.5" r="0.75" fill="#D9D9D9"/>
<circle cx="1024.2" cy="108.5" r="0.75" fill="#D9D9D9"/>
<circle cx="1052.04" cy="108.5" r="0.75" fill="#D9D9D9"/>
<circle cx="1079.38" cy="108.5" r="0.25" fill="#D9D9D9"/>
<circle cx="1106.46" cy="108.5" r="0.5" fill="#D9D9D9"/>
<circle cx="1134.05" cy="108.5" r="0.75" fill="#D9D9D9"/>
<circle cx="1161.88" cy="108.5" r="0.75" fill="#D9D9D9"/>
<circle cx="1189.72" cy="108.5" r="0.75" fill="#D9D9D9"/>
<circle cx="1217.56" cy="108.5" r="0.75" fill="#D9D9D9"/>
<circle cx="1245.39" cy="108.5" r="0.75" fill="#D9D9D9"/>
<circle cx="1272.73" cy="108.5" r="0.25" fill="#D9D9D9"/>
<circle cx="1300.07" cy="108.5" r="0.75" fill="#D9D9D9"/>
<circle cx="1327.9" cy="108.5" r="0.75" fill="#D9D9D9"/>
<circle cx="1355.74" cy="108.5" r="0.75" fill="#D9D9D9"/>
<circle cx="1383.58" cy="108.5" r="0.75" fill="#D9D9D9"/>
<circle cx="1411.41" cy="108.5" r="0.75" fill="#D9D9D9"/>
<circle cx="1439.25" cy="108.5" r="0.75" fill="#D9D9D9"/>
</g>
<g opacity="0.3">
<circle cx="0.75" cy="174.5" r="0.75" fill="#D9D9D9"/>
<circle opacity="0.5" cx="28.5869" cy="174.5" r="0.75" fill="#D9D9D9"/>
<circle cx="56.4229" cy="174.5" r="0.75" fill="#D9D9D9"/>
<circle cx="84.2598" cy="174.5" r="0.75" fill="#D9D9D9"/>
<circle cx="111.846" cy="174.5" r="0.5" fill="#D9D9D9"/>
<circle cx="139.433" cy="174.5" r="0.75" fill="#D9D9D9"/>
<circle opacity="0.5" cx="167.27" cy="174.5" r="0.75" fill="#D9D9D9"/>
<circle cx="194.605" cy="174.5" r="0.25" fill="#D9D9D9"/>
<circle opacity="0.5" cx="221.942" cy="174.5" r="0.75" fill="#D9D9D9"/>
<circle cx="249.779" cy="174.5" r="0.75" fill="#D9D9D9"/>
<circle cx="277.615" cy="174.5" r="0.75" fill="#D9D9D9"/>
<circle cx="305.452" cy="174.5" r="0.75" fill="#D9D9D9"/>
<circle cx="333.288" cy="174.5" r="0.75" fill="#D9D9D9"/>
<circle opacity="0.5" cx="361.125" cy="174.5" r="0.75" fill="#D9D9D9"/>
<circle cx="388.712" cy="174.5" r="0.5" fill="#D9D9D9"/>
<circle cx="416.298" cy="174.5" r="0.75" fill="#D9D9D9"/>
<circle cx="444.135" cy="174.5" r="0.75" fill="#D9D9D9"/>
<circle cx="471.721" cy="174.5" r="0.5" fill="#D9D9D9"/>
<circle cx="499.308" cy="174.5" r="0.75" fill="#D9D9D9"/>
<circle cx="526.645" cy="174.5" r="0.25" fill="#D9D9D9"/>
<circle cx="553.98" cy="174.5" r="0.75" fill="#D9D9D9"/>
<circle opacity="0.5" cx="581.817" cy="174.5" r="0.75" fill="#D9D9D9"/>
<circle cx="609.654" cy="174.5" r="0.75" fill="#D9D9D9"/>
<circle cx="636.99" cy="174.5" r="0.25" fill="#D9D9D9"/>
<circle cx="664.077" cy="174.5" r="0.5" fill="#D9D9D9"/>
<circle cx="691.664" cy="174.5" r="0.75" fill="#D9D9D9"/>
<circle cx="719.5" cy="174.5" r="0.75" fill="#D9D9D9"/>
<circle cx="747.337" cy="174.5" r="0.75" fill="#D9D9D9"/>
<circle opacity="0.5" cx="775.173" cy="174.5" r="0.75" fill="#D9D9D9"/>
<circle cx="803.01" cy="174.5" r="0.75" fill="#D9D9D9"/>
<circle cx="830.346" cy="174.5" r="0.25" fill="#D9D9D9"/>
<circle cx="857.683" cy="174.5" r="0.75" fill="#D9D9D9"/>
<circle cx="885.52" cy="174.5" r="0.75" fill="#D9D9D9"/>
<circle cx="913.106" cy="174.5" r="0.5" fill="#D9D9D9"/>
<circle cx="940.692" cy="174.5" r="0.75" fill="#D9D9D9"/>
<circle cx="968.529" cy="174.5" r="0.75" fill="#D9D9D9"/>
<circle cx="996.366" cy="174.5" r="0.75" fill="#D9D9D9"/>
<circle cx="1024.2" cy="174.5" r="0.75" fill="#D9D9D9"/>
<circle cx="1052.04" cy="174.5" r="0.75" fill="#D9D9D9"/>
<circle cx="1079.38" cy="174.5" r="0.25" fill="#D9D9D9"/>
<circle cx="1106.46" cy="174.5" r="0.5" fill="#D9D9D9"/>
<circle cx="1134.05" cy="174.5" r="0.75" fill="#D9D9D9"/>
<circle cx="1161.88" cy="174.5" r="0.75" fill="#D9D9D9"/>
<circle cx="1189.72" cy="174.5" r="0.75" fill="#D9D9D9"/>
<circle cx="1217.56" cy="174.5" r="0.75" fill="#D9D9D9"/>
<circle cx="1245.39" cy="174.5" r="0.75" fill="#D9D9D9"/>
<circle cx="1272.73" cy="174.5" r="0.25" fill="#D9D9D9"/>
<circle cx="1300.07" cy="174.5" r="0.75" fill="#D9D9D9"/>
<circle cx="1327.9" cy="174.5" r="0.75" fill="#D9D9D9"/>
<circle cx="1355.74" cy="174.5" r="0.75" fill="#D9D9D9"/>
<circle cx="1383.58" cy="174.5" r="0.75" fill="#D9D9D9"/>
<circle cx="1411.41" cy="174.5" r="0.75" fill="#D9D9D9"/>
<circle cx="1439.25" cy="174.5" r="0.75" fill="#D9D9D9"/>
</g>
</svg>
